<?xml version="1.0" encoding="utf-8" standalone="no"?>
<!DOCTYPE svg PUBLIC "-//W3C//DTD SVG 1.1//EN"
  "http://www.w3.org/Graphics/SVG/1.1/DTD/svg11.dtd">
<svg xmlns:xlink="http://www.w3.org/1999/xlink" width="1872pt" height="720pt" viewBox="0 0 1872 720" xmlns="http://www.w3.org/2000/svg" version="1.1">
 <metadata>
  <rdf:RDF xmlns:dc="http://purl.org/dc/elements/1.1/" xmlns:cc="http://creativecommons.org/ns#" xmlns:rdf="http://www.w3.org/1999/02/22-rdf-syntax-ns#">
   <cc:Work>
    <dc:type rdf:resource="http://purl.org/dc/dcmitype/StillImage"/>
    <dc:date>2024-02-02T16:00:03.499231</dc:date>
    <dc:format>image/svg+xml</dc:format>
    <dc:creator>
     <cc:Agent>
      <dc:title>Matplotlib v3.5.3, https://matplotlib.org/</dc:title>
     </cc:Agent>
    </dc:creator>
   </cc:Work>
  </rdf:RDF>
 </metadata>
 <defs>
  <style type="text/css">*{stroke-linejoin: round; stroke-linecap: butt}</style>
 </defs>
 <g id="figure_1">
  <g id="patch_1">
   <path d="M 0 720 
L 1872 720 
L 1872 0 
L 0 0 
z
" style="fill: #ffffff"/>
  </g>
  <g id="axes_1">
   <g id="patch_2">
    <path d="M 234 338.4 
L 660.705882 338.4 
L 660.705882 86.4 
L 234 86.4 
z
" style="fill: #ffffff"/>
   </g>
   <g id="matplotlib.axis_1"/>
   <g id="matplotlib.axis_2"/>
   <g id="line2d_1">
    <path d="M 253.395722 275.395601 
L 258.459879 289.711746 
L 259.472711 289.711746 
L 260.485542 295.446023 
L 261.498373 295.446023 
L 263.524036 301.167269 
L 264.536868 301.167269 
L 265.549699 306.901547 
L 267.575362 306.901547 
L 269.601025 312.622792 
L 270.613856 312.622792 
L 271.626688 315.489931 
L 272.639519 315.489931 
L 273.652351 318.35707 
L 274.665182 318.35707 
L 276.690845 324.078315 
L 277.703676 324.078315 
L 278.716508 326.945455 
L 281.755002 326.945455 
L 284.793496 309.76217 
L 286.819159 286.851122 
L 287.831991 272.534977 
L 288.844822 255.358208 
L 289.857653 246.763305 
L 293.908979 189.492202 
L 297.960305 155.132156 
L 298.973136 149.397871 
L 299.985968 146.537253 
L 300.998799 140.809494 
L 302.011631 132.221104 
L 303.024462 129.360487 
L 304.037294 120.765585 
L 307.075788 120.765585 
L 308.088619 123.626202 
L 309.101451 120.765585 
L 311.127114 120.765585 
L 314.165608 129.360487 
L 315.178439 135.081734 
L 316.191271 143.676624 
L 317.204102 149.404396 
L 318.216934 152.265013 
L 320.242596 169.448305 
L 323.281091 186.631584 
L 324.293922 189.492202 
L 325.306754 195.219974 
L 326.319585 198.080591 
L 327.332416 203.814864 
L 328.345248 203.814864 
L 329.358079 206.675493 
L 330.370911 206.675493 
L 331.383742 212.403253 
L 334.422236 212.403253 
L 336.447899 218.131013 
L 338.473562 218.131013 
L 343.537719 232.447162 
L 344.550551 232.447162 
L 346.576214 238.168409 
L 347.589045 243.902682 
L 357.717359 272.534977 
L 358.730191 272.534977 
L 359.743022 278.262737 
L 361.768685 278.262737 
L 362.781517 283.9905 
L 364.807179 283.9905 
L 365.820011 289.711746 
L 366.832842 289.711746 
L 367.845674 295.446023 
L 370.884168 295.446023 
L 371.896999 301.167269 
L 373.922662 301.167269 
L 375.948325 306.901547 
L 378.98682 306.901547 
L 382.025314 289.711746 
L 384.050977 272.534977 
L 385.063808 258.218831 
L 387.089471 241.035546 
L 391.140797 195.219974 
L 392.153628 180.903825 
L 393.16646 172.308922 
L 394.179291 160.859915 
L 395.192122 152.265013 
L 396.204954 146.537253 
L 398.230617 140.809494 
L 399.243448 135.081734 
L 400.25628 123.632727 
L 401.269111 115.037825 
L 402.281942 109.310065 
L 403.294774 100.721675 
L 405.320437 100.721675 
L 406.333268 103.582293 
L 408.358931 103.582293 
L 409.371762 109.310065 
L 410.384594 112.177195 
L 413.423088 129.353962 
L 414.43592 137.948864 
L 416.461582 149.404396 
L 417.474414 152.271526 
L 418.487245 157.992773 
L 419.500077 166.581163 
L 422.538571 183.764442 
L 423.551403 186.631584 
L 424.564234 192.352831 
L 425.577065 195.219974 
L 426.589897 200.947734 
L 428.61556 206.675493 
L 429.628391 212.403253 
L 430.641223 212.403253 
L 431.654054 218.131013 
L 438.743874 238.168409 
L 439.756705 238.168409 
L 441.782368 243.902682 
L 442.7952 243.902682 
L 444.820863 249.623929 
L 446.846525 249.623929 
L 448.872188 255.358208 
L 450.897851 255.358208 
L 452.923514 261.079455 
L 453.936345 261.079455 
L 454.949177 266.81373 
L 456.97484 266.81373 
L 459.000503 272.534977 
L 460.013334 272.534977 
L 462.038997 278.262737 
L 464.06466 278.262737 
L 465.077491 283.9905 
L 469.128817 283.9905 
L 471.15448 289.711746 
L 475.205806 289.711746 
L 476.218637 286.851122 
L 477.231468 278.262737 
L 478.2443 275.395601 
L 479.257131 266.81373 
L 480.269963 261.079455 
L 481.282794 249.623929 
L 482.295626 241.035546 
L 483.308457 229.58002 
L 484.321288 223.85226 
L 488.372614 189.492202 
L 490.398277 166.587675 
L 492.42394 149.404396 
L 493.436771 143.670111 
L 494.449603 143.670111 
L 497.488097 126.493344 
L 499.51376 109.310065 
L 500.526591 103.582293 
L 502.552254 97.854545 
L 503.565086 100.721675 
L 506.60358 100.721675 
L 508.629243 112.177195 
L 509.642074 115.037825 
L 511.667737 132.221104 
L 512.680569 137.948864 
L 513.6934 146.537253 
L 515.719063 157.992773 
L 516.731894 166.581163 
L 518.757557 178.036682 
L 519.770389 186.631584 
L 520.78322 189.492202 
L 522.808883 200.947734 
L 523.821714 203.808351 
L 524.834546 209.54263 
L 525.847377 212.403253 
L 526.860209 218.131013 
L 528.885871 223.858779 
L 529.898703 223.858779 
L 530.911534 229.58002 
L 532.937197 229.58002 
L 534.96286 235.307786 
L 535.975691 235.307786 
L 536.988523 238.168409 
L 538.001354 238.168409 
L 539.014186 241.035546 
L 540.027017 241.035546 
L 541.039849 243.902682 
L 542.05268 243.902682 
L 543.065512 246.763305 
L 544.078343 246.763305 
L 545.091174 249.623929 
L 546.104006 249.623929 
L 547.116837 252.491071 
L 549.1425 252.491071 
L 551.168163 258.218831 
L 553.193826 258.218831 
L 555.219489 263.946591 
L 558.257983 263.946591 
L 560.283646 269.674354 
L 561.296477 269.674354 
L 562.309309 272.534977 
L 563.32214 272.534977 
L 564.334972 275.402117 
L 566.360634 275.402117 
L 567.373466 278.262737 
L 571.424792 278.262737 
L 574.463286 269.674354 
L 576.488949 258.218831 
L 577.50178 255.351689 
L 580.540275 238.174922 
L 582.565937 220.998155 
L 583.578769 215.263877 
L 584.5916 203.808351 
L 585.604432 195.219974 
L 588.642926 160.853403 
L 589.655757 152.265013 
L 590.668589 146.543766 
L 591.68142 143.676624 
L 592.694252 137.948864 
L 593.707083 137.948864 
L 594.719915 132.221104 
L 595.732746 123.626202 
L 597.758409 112.170682 
L 598.77124 112.170682 
L 599.784072 109.310065 
L 603.835397 109.310065 
L 604.848229 112.170682 
L 605.86106 112.170682 
L 606.873892 117.904955 
L 607.886723 120.765585 
L 608.899555 126.493344 
L 609.912386 126.493344 
L 610.925217 132.221104 
L 612.95088 137.948864 
L 614.976543 149.404396 
L 617.002206 155.132156 
L 619.027869 166.581163 
L 620.0407 166.581163 
L 622.066363 178.036682 
L 623.079195 178.036682 
L 625.104858 189.492202 
L 626.117689 189.492202 
L 628.143352 200.947734 
L 629.156183 200.947734 
L 630.169015 206.675493 
L 634.22034 218.131013 
L 635.233172 218.131013 
L 637.258835 223.858779 
L 638.271666 223.858779 
L 640.297329 229.58002 
L 641.31016 229.58002 
L 641.31016 229.58002 
" clip-path="url(#p221e8c5fca)" style="fill: none; stroke: #000000; stroke-width: 1.5; stroke-linecap: square"/>
   </g>
   <g id="line2d_2">
    <path d="M 447.859357 272.237259 
L 448.872188 265.448255 
L 449.88502 276.581268 
L 450.897851 275.086825 
L 451.910683 270.236367 
L 452.923514 277.967067 
L 453.936345 275.961996 
L 454.949177 277.943723 
L 455.962008 280.929882 
L 456.97484 271.956422 
L 457.987671 275.102446 
L 459.000503 274.970778 
L 460.013334 273.519303 
L 461.026166 273.582605 
L 462.038997 273.834784 
L 463.051828 276.336669 
L 464.06466 276.326432 
L 465.077491 277.715101 
L 466.090323 270.758367 
L 467.103154 280.394174 
L 468.115986 278.953432 
L 469.128817 280.208732 
L 470.141648 279.650601 
L 471.15448 272.235381 
L 472.167311 275.286719 
L 473.180143 274.806519 
L 474.192974 276.223562 
L 475.205806 281.280857 
L 476.218637 272.946754 
L 477.231468 270.095488 
L 478.2443 279.324599 
L 479.257131 274.206305 
L 480.269963 253.716302 
L 481.282794 246.285709 
L 482.295626 241.49494 
L 483.308457 229.977547 
L 484.321288 227.044276 
L 485.33412 224.979286 
L 487.359783 201.959183 
L 488.372614 201.024926 
L 489.385446 188.168174 
L 490.398277 181.774495 
L 491.411108 181.218383 
L 492.42394 171.840157 
L 493.436771 164.035971 
L 494.449603 157.575271 
L 495.462434 157.30492 
L 496.475266 147.962454 
L 497.488097 141.020651 
L 498.500928 132.287734 
L 499.51376 131.700325 
L 500.526591 136.163091 
L 501.539423 131.276307 
L 502.552254 123.056568 
L 503.565086 127.87534 
L 504.577917 127.665119 
L 505.590749 126.084881 
L 506.60358 124.268031 
L 507.616411 126.413309 
L 508.629243 131.843435 
L 509.642074 128.882906 
L 510.654906 136.986632 
L 512.680569 149.730118 
L 513.6934 152.552 
L 514.706231 160.34416 
L 515.719063 165.828821 
L 516.731894 172.621474 
L 517.744726 171.684648 
L 518.757557 181.123289 
L 519.770389 183.692691 
L 520.78322 178.268604 
L 521.796051 184.329887 
L 522.808883 191.75623 
L 523.821714 197.59663 
L 524.834546 198.143213 
L 525.847377 196.721565 
L 526.860209 192.907668 
L 527.87304 205.902057 
L 528.885871 203.09709 
L 529.898703 211.349276 
L 530.911534 209.998882 
L 531.924366 213.585007 
L 532.937197 212.34648 
L 533.950029 214.441935 
L 534.96286 224.103034 
L 535.975691 222.92641 
L 536.988523 225.611416 
L 538.001354 223.311817 
L 539.014186 230.554577 
L 540.027017 234.732716 
L 541.039849 232.698137 
L 542.05268 248.351922 
L 543.065512 240.616156 
L 544.078343 243.094732 
L 545.091174 249.224967 
L 546.104006 248.442464 
L 547.116837 255.569974 
L 548.129669 255.436322 
L 549.1425 253.65378 
L 550.155332 257.370688 
L 551.168163 258.413589 
L 552.180994 259.907997 
L 554.206657 268.264204 
L 555.219489 262.386325 
L 557.245152 254.959487 
L 558.257983 262.099785 
L 559.270814 264.205105 
L 560.283646 263.461284 
L 561.296477 268.97749 
L 562.309309 267.671889 
L 563.32214 259.760175 
L 564.334972 268.240966 
L 565.347803 271.628189 
L 566.360634 268.999311 
L 567.373466 272.32812 
L 568.386297 263.145874 
L 569.399129 262.136378 
L 570.41196 265.113185 
L 571.424792 260.514233 
L 572.437623 269.183264 
L 573.450454 254.336956 
L 574.463286 253.444534 
L 575.476117 249.277429 
L 576.488949 250.016787 
L 577.50178 238.137686 
L 578.514612 223.651828 
L 579.527443 223.273294 
L 581.553106 201.681623 
L 582.565937 193.793058 
L 583.578769 191.439208 
L 584.5916 187.169074 
L 585.604432 174.995392 
L 586.617263 175.738026 
L 587.630095 166.526414 
L 588.642926 152.886557 
L 589.655757 144.707556 
L 590.668589 138.952419 
L 591.68142 137.812653 
L 593.707083 119.530096 
L 594.719915 115.873071 
L 595.732746 119.780929 
L 596.745577 112.467251 
L 597.758409 114.553885 
L 598.77124 107.847135 
L 599.784072 106.974603 
L 600.796903 111.383561 
L 601.809735 100.711884 
L 602.822566 111.593462 
L 603.835397 105.121993 
L 604.848229 103.748468 
L 605.86106 108.930861 
L 606.873892 116.68611 
L 607.886723 118.397025 
L 609.912386 119.946197 
L 610.925217 127.036177 
L 611.938049 135.472051 
L 612.95088 137.562564 
L 613.963712 142.859197 
L 614.976543 149.982403 
L 615.989375 148.164297 
L 617.002206 148.471612 
L 618.015037 160.536191 
L 619.027869 169.516912 
L 620.0407 176.842387 
L 621.053532 175.839674 
L 622.066363 181.834024 
L 623.079195 176.444847 
L 624.092026 187.051468 
L 625.104858 185.304952 
L 626.117689 188.232131 
L 627.13052 191.816945 
L 628.143352 197.186214 
L 629.156183 199.167517 
L 630.169015 197.04716 
L 631.181846 201.712459 
L 632.194678 208.890625 
L 633.207509 201.081356 
L 634.22034 214.503749 
L 635.233172 210.54814 
L 636.246003 216.998354 
L 637.258835 216.521307 
L 638.271666 224.24572 
L 639.284498 216.795042 
L 640.297329 222.86325 
L 641.31016 231.822009 
L 641.31016 231.822009 
" clip-path="url(#p221e8c5fca)" style="fill: none; stroke: #3883d7; stroke-width: 1.5; stroke-linecap: square"/>
   </g>
   <g id="patch_3">
    <path d="M 234 338.4 
L 234 86.4 
" style="fill: none; stroke: #000000; stroke-width: 0.8; stroke-linejoin: miter; stroke-linecap: square"/>
   </g>
   <g id="patch_4">
    <path d="M 660.705882 338.4 
L 660.705882 86.4 
" style="fill: none; stroke: #000000; stroke-width: 0.8; stroke-linejoin: miter; stroke-linecap: square"/>
   </g>
   <g id="patch_5">
    <path d="M 234 338.4 
L 660.705882 338.4 
" style="fill: none; stroke: #000000; stroke-width: 0.8; stroke-linejoin: miter; stroke-linecap: square"/>
   </g>
   <g id="patch_6">
    <path d="M 234 86.4 
L 660.705882 86.4 
" style="fill: none; stroke: #000000; stroke-width: 0.8; stroke-linejoin: miter; stroke-linecap: square"/>
   </g>
   <g id="text_1">
    <!-- ATFNet -->
    <g transform="translate(415.421222 80.4)scale(0.18 -0.18)">
     <defs>
      <path id="DejaVuSans-41" d="M 2188 4044 
L 1331 1722 
L 3047 1722 
L 2188 4044 
z
M 1831 4666 
L 2547 4666 
L 4325 0 
L 3669 0 
L 3244 1197 
L 1141 1197 
L 716 0 
L 50 0 
L 1831 4666 
z
" transform="scale(0.015625)"/>
      <path id="DejaVuSans-54" d="M -19 4666 
L 3928 4666 
L 3928 4134 
L 2272 4134 
L 2272 0 
L 1638 0 
L 1638 4134 
L -19 4134 
L -19 4666 
z
" transform="scale(0.015625)"/>
      <path id="DejaVuSans-46" d="M 628 4666 
L 3309 4666 
L 3309 4134 
L 1259 4134 
L 1259 2759 
L 3109 2759 
L 3109 2228 
L 1259 2228 
L 1259 0 
L 628 0 
L 628 4666 
z
" transform="scale(0.015625)"/>
      <path id="DejaVuSans-4e" d="M 628 4666 
L 1478 4666 
L 3547 763 
L 3547 4666 
L 4159 4666 
L 4159 0 
L 3309 0 
L 1241 3903 
L 1241 0 
L 628 0 
L 628 4666 
z
" transform="scale(0.015625)"/>
      <path id="DejaVuSans-65" d="M 3597 1894 
L 3597 1613 
L 953 1613 
Q 991 1019 1311 708 
Q 1631 397 2203 397 
Q 2534 397 2845 478 
Q 3156 559 3463 722 
L 3463 178 
Q 3153 47 2828 -22 
Q 2503 -91 2169 -91 
Q 1331 -91 842 396 
Q 353 884 353 1716 
Q 353 2575 817 3079 
Q 1281 3584 2069 3584 
Q 2775 3584 3186 3129 
Q 3597 2675 3597 1894 
z
M 3022 2063 
Q 3016 2534 2758 2815 
Q 2500 3097 2075 3097 
Q 1594 3097 1305 2825 
Q 1016 2553 972 2059 
L 3022 2063 
z
" transform="scale(0.015625)"/>
      <path id="DejaVuSans-74" d="M 1172 4494 
L 1172 3500 
L 2356 3500 
L 2356 3053 
L 1172 3053 
L 1172 1153 
Q 1172 725 1289 603 
Q 1406 481 1766 481 
L 2356 481 
L 2356 0 
L 1766 0 
Q 1100 0 847 248 
Q 594 497 594 1153 
L 594 3053 
L 172 3053 
L 172 3500 
L 594 3500 
L 594 4494 
L 1172 4494 
z
" transform="scale(0.015625)"/>
     </defs>
     <use xlink:href="#DejaVuSans-41"/>
     <use xlink:href="#DejaVuSans-54" x="60.658203"/>
     <use xlink:href="#DejaVuSans-46" x="121.742188"/>
     <use xlink:href="#DejaVuSans-4e" x="179.261719"/>
     <use xlink:href="#DejaVuSans-65" x="254.066406"/>
     <use xlink:href="#DejaVuSans-74" x="315.589844"/>
    </g>
   </g>
  </g>
  <g id="axes_2">
   <g id="patch_7">
    <path d="M 746.047059 338.4 
L 1172.752941 338.4 
L 1172.752941 86.4 
L 746.047059 86.4 
z
" style="fill: #ffffff"/>
   </g>
   <g id="matplotlib.axis_3"/>
   <g id="matplotlib.axis_4"/>
   <g id="line2d_3">
    <path d="M 765.442781 275.395601 
L 770.506938 289.711746 
L 771.519769 289.711746 
L 772.532601 295.446023 
L 773.545432 295.446023 
L 775.571095 301.167269 
L 776.583927 301.167269 
L 777.596758 306.901547 
L 779.622421 306.901547 
L 781.648084 312.622792 
L 782.660915 312.622792 
L 783.673747 315.489931 
L 784.686578 315.489931 
L 785.699409 318.35707 
L 786.712241 318.35707 
L 788.737904 324.078315 
L 789.750735 324.078315 
L 790.763567 326.945455 
L 793.802061 326.945455 
L 796.840555 309.76217 
L 798.866218 286.851122 
L 799.879049 272.534977 
L 800.891881 255.358208 
L 801.904712 246.763305 
L 805.956038 189.492202 
L 810.007364 155.132156 
L 811.020195 149.397871 
L 812.033027 146.537253 
L 813.045858 140.809494 
L 814.058689 132.221104 
L 815.071521 129.360487 
L 816.084352 120.765585 
L 819.122847 120.765585 
L 820.135678 123.626202 
L 821.14851 120.765585 
L 823.174172 120.765585 
L 826.212667 129.360487 
L 827.225498 135.081734 
L 828.23833 143.676624 
L 829.251161 149.404396 
L 830.263992 152.265013 
L 832.289655 169.448305 
L 835.32815 186.631584 
L 836.340981 189.492202 
L 837.353812 195.219974 
L 838.366644 198.080591 
L 839.379475 203.814864 
L 840.392307 203.814864 
L 841.405138 206.675493 
L 842.41797 206.675493 
L 843.430801 212.403253 
L 846.469295 212.403253 
L 848.494958 218.131013 
L 850.520621 218.131013 
L 855.584778 232.447162 
L 856.59761 232.447162 
L 858.623273 238.168409 
L 859.636104 243.902682 
L 869.764418 272.534977 
L 870.77725 272.534977 
L 871.790081 278.262737 
L 873.815744 278.262737 
L 874.828575 283.9905 
L 876.854238 283.9905 
L 877.86707 289.711746 
L 878.879901 289.711746 
L 879.892733 295.446023 
L 882.931227 295.446023 
L 883.944058 301.167269 
L 885.969721 301.167269 
L 887.995384 306.901547 
L 891.033878 306.901547 
L 894.072373 289.711746 
L 896.098035 272.534977 
L 897.110867 258.218831 
L 899.13653 241.035546 
L 903.187856 195.219974 
L 904.200687 180.903825 
L 905.213518 172.308922 
L 906.22635 160.859915 
L 907.239181 152.265013 
L 908.252013 146.537253 
L 910.277676 140.809494 
L 911.290507 135.081734 
L 912.303338 123.632727 
L 913.31617 115.037825 
L 914.329001 109.310065 
L 915.341833 100.721675 
L 917.367496 100.721675 
L 918.380327 103.582293 
L 920.40599 103.582293 
L 921.418821 109.310065 
L 922.431653 112.177195 
L 925.470147 129.353962 
L 926.482978 137.948864 
L 928.508641 149.404396 
L 929.521473 152.271526 
L 930.534304 157.992773 
L 931.547136 166.581163 
L 934.58563 183.764442 
L 935.598461 186.631584 
L 936.611293 192.352831 
L 937.624124 195.219974 
L 938.636956 200.947734 
L 940.662619 206.675493 
L 941.67545 212.403253 
L 942.688281 212.403253 
L 943.701113 218.131013 
L 950.790933 238.168409 
L 951.803764 238.168409 
L 953.829427 243.902682 
L 954.842259 243.902682 
L 956.867921 249.623929 
L 958.893584 249.623929 
L 960.919247 255.358208 
L 962.94491 255.358208 
L 964.970573 261.079455 
L 965.983404 261.079455 
L 966.996236 266.81373 
L 969.021899 266.81373 
L 971.047561 272.534977 
L 972.060393 272.534977 
L 974.086056 278.262737 
L 976.111719 278.262737 
L 977.12455 283.9905 
L 981.175876 283.9905 
L 983.201539 289.711746 
L 987.252864 289.711746 
L 988.265696 286.851122 
L 989.278527 278.262737 
L 990.291359 275.395601 
L 991.30419 266.81373 
L 992.317022 261.079455 
L 993.329853 249.623929 
L 994.342684 241.035546 
L 995.355516 229.58002 
L 996.368347 223.85226 
L 1000.419673 189.492202 
L 1002.445336 166.587675 
L 1004.470999 149.404396 
L 1005.48383 143.670111 
L 1006.496662 143.670111 
L 1009.535156 126.493344 
L 1011.560819 109.310065 
L 1012.57365 103.582293 
L 1014.599313 97.854545 
L 1015.612144 100.721675 
L 1018.650639 100.721675 
L 1020.676302 112.177195 
L 1021.689133 115.037825 
L 1023.714796 132.221104 
L 1024.727627 137.948864 
L 1025.740459 146.537253 
L 1027.766122 157.992773 
L 1028.778953 166.581163 
L 1030.804616 178.036682 
L 1031.817447 186.631584 
L 1032.830279 189.492202 
L 1034.855942 200.947734 
L 1035.868773 203.808351 
L 1036.881605 209.54263 
L 1037.894436 212.403253 
L 1038.907267 218.131013 
L 1040.93293 223.858779 
L 1041.945762 223.858779 
L 1042.958593 229.58002 
L 1044.984256 229.58002 
L 1047.009919 235.307786 
L 1048.02275 235.307786 
L 1049.035582 238.168409 
L 1050.048413 238.168409 
L 1051.061245 241.035546 
L 1052.074076 241.035546 
L 1053.086907 243.902682 
L 1054.099739 243.902682 
L 1055.11257 246.763305 
L 1056.125402 246.763305 
L 1057.138233 249.623929 
L 1058.151065 249.623929 
L 1059.163896 252.491071 
L 1061.189559 252.491071 
L 1063.215222 258.218831 
L 1065.240885 258.218831 
L 1067.266548 263.946591 
L 1070.305042 263.946591 
L 1072.330705 269.674354 
L 1073.343536 269.674354 
L 1074.356368 272.534977 
L 1075.369199 272.534977 
L 1076.38203 275.402117 
L 1078.407693 275.402117 
L 1079.420525 278.262737 
L 1083.47185 278.262737 
L 1086.510345 269.674354 
L 1088.536008 258.218831 
L 1089.548839 255.351689 
L 1092.587333 238.174922 
L 1094.612996 220.998155 
L 1095.625828 215.263877 
L 1096.638659 203.808351 
L 1097.65149 195.219974 
L 1100.689985 160.853403 
L 1101.702816 152.265013 
L 1102.715648 146.543766 
L 1103.728479 143.676624 
L 1104.741311 137.948864 
L 1105.754142 137.948864 
L 1106.766973 132.221104 
L 1107.779805 123.626202 
L 1109.805468 112.170682 
L 1110.818299 112.170682 
L 1111.831131 109.310065 
L 1115.882456 109.310065 
L 1116.895288 112.170682 
L 1117.908119 112.170682 
L 1118.920951 117.904955 
L 1119.933782 120.765585 
L 1120.946613 126.493344 
L 1121.959445 126.493344 
L 1122.972276 132.221104 
L 1124.997939 137.948864 
L 1127.023602 149.404396 
L 1129.049265 155.132156 
L 1131.074928 166.581163 
L 1132.087759 166.581163 
L 1134.113422 178.036682 
L 1135.126253 178.036682 
L 1137.151916 189.492202 
L 1138.164748 189.492202 
L 1140.190411 200.947734 
L 1141.203242 200.947734 
L 1142.216073 206.675493 
L 1146.267399 218.131013 
L 1147.280231 218.131013 
L 1149.305894 223.858779 
L 1150.318725 223.858779 
L 1152.344388 229.58002 
L 1153.357219 229.58002 
L 1153.357219 229.58002 
" clip-path="url(#p0a111e2500)" style="fill: none; stroke: #000000; stroke-width: 1.5; stroke-linecap: square"/>
   </g>
   <g id="line2d_4">
    <path d="M 959.906416 253.802842 
L 960.919247 258.241467 
L 961.932079 256.849504 
L 962.94491 260.970628 
L 963.957741 266.949499 
L 964.970573 265.326894 
L 965.983404 260.561701 
L 966.996236 263.947187 
L 968.009067 266.012656 
L 969.021899 267.383755 
L 970.03473 267.882977 
L 971.047561 271.862514 
L 972.060393 273.871518 
L 973.073224 278.24213 
L 974.086056 277.9727 
L 975.098887 284.627768 
L 976.111719 279.423359 
L 977.12455 286.823595 
L 978.137381 285.963195 
L 979.150213 283.243952 
L 980.163044 284.057628 
L 981.175876 282.737999 
L 982.188707 286.718564 
L 983.201539 285.065566 
L 984.21437 284.883242 
L 985.227202 285.330994 
L 986.240033 283.047883 
L 987.252864 284.295248 
L 988.265696 282.899388 
L 989.278527 278.297001 
L 990.291359 276.296959 
L 991.30419 278.115598 
L 992.317022 265.729871 
L 993.329853 261.454194 
L 994.342684 252.534046 
L 995.355516 240.836667 
L 996.368347 240.030784 
L 997.381179 231.05488 
L 998.39401 226.458886 
L 999.406842 216.905935 
L 1000.419673 216.78197 
L 1001.432504 207.105869 
L 1002.445336 201.117682 
L 1003.458167 191.142041 
L 1004.470999 184.693544 
L 1005.48383 184.09395 
L 1006.496662 168.946507 
L 1007.509493 173.860408 
L 1008.522324 166.786493 
L 1009.535156 165.188844 
L 1010.547987 156.661382 
L 1011.560819 152.635972 
L 1012.57365 151.914857 
L 1013.586482 151.626688 
L 1014.599313 148.713289 
L 1015.612144 151.389563 
L 1016.624976 149.884298 
L 1017.637807 140.932836 
L 1018.650639 148.470142 
L 1019.66347 152.047925 
L 1020.676302 160.034152 
L 1021.689133 154.178945 
L 1022.701965 165.667025 
L 1023.714796 164.470492 
L 1025.740459 172.962318 
L 1026.75329 178.937469 
L 1027.766122 187.963462 
L 1028.778953 189.290565 
L 1029.791785 199.491694 
L 1030.804616 202.703518 
L 1031.817447 203.173799 
L 1032.830279 206.005689 
L 1033.84311 206.024251 
L 1034.855942 212.687608 
L 1035.868773 214.8998 
L 1036.881605 219.181535 
L 1037.894436 218.490778 
L 1038.907267 223.938616 
L 1039.920099 220.972561 
L 1040.93293 229.68851 
L 1041.945762 229.279564 
L 1042.958593 233.127433 
L 1043.971425 232.850316 
L 1044.984256 233.492418 
L 1047.009919 244.915992 
L 1048.02275 245.445218 
L 1049.035582 247.406754 
L 1050.048413 243.431786 
L 1051.061245 252.658205 
L 1052.074076 253.207622 
L 1053.086907 260.551782 
L 1054.099739 260.205872 
L 1055.11257 267.933703 
L 1056.125402 268.268667 
L 1057.138233 262.902303 
L 1058.151065 272.107184 
L 1059.163896 278.331008 
L 1060.176727 277.295581 
L 1061.189559 275.609993 
L 1062.20239 279.168878 
L 1063.215222 280.334804 
L 1064.228053 283.650542 
L 1065.240885 276.724308 
L 1066.253716 282.4657 
L 1067.266548 286.285513 
L 1068.279379 280.102674 
L 1069.29221 280.908486 
L 1070.305042 283.17059 
L 1071.317873 287.121293 
L 1072.330705 290.396684 
L 1073.343536 297.747468 
L 1074.356368 296.523908 
L 1075.369199 299.671101 
L 1076.38203 297.518278 
L 1077.394862 298.298231 
L 1078.407693 300.888002 
L 1079.420525 301.698206 
L 1080.433356 304.309656 
L 1081.446188 301.71064 
L 1082.459019 295.785542 
L 1083.47185 302.659527 
L 1084.484682 293.189466 
L 1085.497513 297.513461 
L 1086.510345 294.516215 
L 1087.523176 294.583519 
L 1088.536008 292.375365 
L 1089.548839 282.694287 
L 1092.587333 261.933402 
L 1093.600165 264.680629 
L 1094.612996 249.844523 
L 1095.625828 246.118582 
L 1097.65149 230.092195 
L 1098.664322 218.772022 
L 1099.677153 212.757799 
L 1100.689985 212.342761 
L 1101.702816 202.614428 
L 1102.715648 195.938336 
L 1103.728479 190.699815 
L 1104.741311 188.294512 
L 1105.754142 178.112263 
L 1106.766973 185.830423 
L 1107.779805 172.290973 
L 1108.792636 168.854742 
L 1109.805468 173.280739 
L 1110.818299 168.920665 
L 1111.831131 173.147228 
L 1112.843962 167.79808 
L 1113.856793 167.827835 
L 1114.869625 170.662842 
L 1115.882456 172.333747 
L 1116.895288 168.60754 
L 1117.908119 174.740928 
L 1118.920951 171.623773 
L 1119.933782 181.066027 
L 1120.946613 186.373199 
L 1121.959445 190.16106 
L 1122.972276 192.061367 
L 1123.985108 202.108351 
L 1124.997939 204.44759 
L 1126.010771 212.718869 
L 1127.023602 214.268998 
L 1128.036433 220.428262 
L 1129.049265 219.857467 
L 1130.062096 229.136135 
L 1131.074928 224.854701 
L 1132.087759 231.811294 
L 1133.100591 231.785488 
L 1134.113422 236.760317 
L 1135.126253 245.908414 
L 1136.139085 246.434665 
L 1137.151916 245.77756 
L 1138.164748 246.847241 
L 1139.177579 253.962495 
L 1140.190411 252.610985 
L 1141.203242 259.3979 
L 1142.216073 244.929488 
L 1143.228905 259.014689 
L 1144.241736 264.406558 
L 1145.254568 264.672978 
L 1146.267399 266.80823 
L 1147.280231 273.275519 
L 1148.293062 265.440143 
L 1149.305894 270.748413 
L 1150.318725 268.580004 
L 1151.331556 282.741648 
L 1152.344388 274.210485 
L 1153.357219 284.003572 
L 1153.357219 284.003572 
" clip-path="url(#p0a111e2500)" style="fill: none; stroke: #3883d7; stroke-width: 1.5; stroke-linecap: square"/>
   </g>
   <g id="patch_8">
    <path d="M 746.047059 338.4 
L 746.047059 86.4 
" style="fill: none; stroke: #000000; stroke-width: 0.8; stroke-linejoin: miter; stroke-linecap: square"/>
   </g>
   <g id="patch_9">
    <path d="M 1172.752941 338.4 
L 1172.752941 86.4 
" style="fill: none; stroke: #000000; stroke-width: 0.8; stroke-linejoin: miter; stroke-linecap: square"/>
   </g>
   <g id="patch_10">
    <path d="M 746.047059 338.4 
L 1172.752941 338.4 
" style="fill: none; stroke: #000000; stroke-width: 0.8; stroke-linejoin: miter; stroke-linecap: square"/>
   </g>
   <g id="patch_11">
    <path d="M 746.047059 86.4 
L 1172.752941 86.4 
" style="fill: none; stroke: #000000; stroke-width: 0.8; stroke-linejoin: miter; stroke-linecap: square"/>
   </g>
   <g id="text_2">
    <!-- PatchTST -->
    <g transform="translate(917.974688 80.4)scale(0.18 -0.18)">
     <defs>
      <path id="DejaVuSans-50" d="M 1259 4147 
L 1259 2394 
L 2053 2394 
Q 2494 2394 2734 2622 
Q 2975 2850 2975 3272 
Q 2975 3691 2734 3919 
Q 2494 4147 2053 4147 
L 1259 4147 
z
M 628 4666 
L 2053 4666 
Q 2838 4666 3239 4311 
Q 3641 3956 3641 3272 
Q 3641 2581 3239 2228 
Q 2838 1875 2053 1875 
L 1259 1875 
L 1259 0 
L 628 0 
L 628 4666 
z
" transform="scale(0.015625)"/>
      <path id="DejaVuSans-61" d="M 2194 1759 
Q 1497 1759 1228 1600 
Q 959 1441 959 1056 
Q 959 750 1161 570 
Q 1363 391 1709 391 
Q 2188 391 2477 730 
Q 2766 1069 2766 1631 
L 2766 1759 
L 2194 1759 
z
M 3341 1997 
L 3341 0 
L 2766 0 
L 2766 531 
Q 2569 213 2275 61 
Q 1981 -91 1556 -91 
Q 1019 -91 701 211 
Q 384 513 384 1019 
Q 384 1609 779 1909 
Q 1175 2209 1959 2209 
L 2766 2209 
L 2766 2266 
Q 2766 2663 2505 2880 
Q 2244 3097 1772 3097 
Q 1472 3097 1187 3025 
Q 903 2953 641 2809 
L 641 3341 
Q 956 3463 1253 3523 
Q 1550 3584 1831 3584 
Q 2591 3584 2966 3190 
Q 3341 2797 3341 1997 
z
" transform="scale(0.015625)"/>
      <path id="DejaVuSans-63" d="M 3122 3366 
L 3122 2828 
Q 2878 2963 2633 3030 
Q 2388 3097 2138 3097 
Q 1578 3097 1268 2742 
Q 959 2388 959 1747 
Q 959 1106 1268 751 
Q 1578 397 2138 397 
Q 2388 397 2633 464 
Q 2878 531 3122 666 
L 3122 134 
Q 2881 22 2623 -34 
Q 2366 -91 2075 -91 
Q 1284 -91 818 406 
Q 353 903 353 1747 
Q 353 2603 823 3093 
Q 1294 3584 2113 3584 
Q 2378 3584 2631 3529 
Q 2884 3475 3122 3366 
z
" transform="scale(0.015625)"/>
      <path id="DejaVuSans-68" d="M 3513 2113 
L 3513 0 
L 2938 0 
L 2938 2094 
Q 2938 2591 2744 2837 
Q 2550 3084 2163 3084 
Q 1697 3084 1428 2787 
Q 1159 2491 1159 1978 
L 1159 0 
L 581 0 
L 581 4863 
L 1159 4863 
L 1159 2956 
Q 1366 3272 1645 3428 
Q 1925 3584 2291 3584 
Q 2894 3584 3203 3211 
Q 3513 2838 3513 2113 
z
" transform="scale(0.015625)"/>
      <path id="DejaVuSans-53" d="M 3425 4513 
L 3425 3897 
Q 3066 4069 2747 4153 
Q 2428 4238 2131 4238 
Q 1616 4238 1336 4038 
Q 1056 3838 1056 3469 
Q 1056 3159 1242 3001 
Q 1428 2844 1947 2747 
L 2328 2669 
Q 3034 2534 3370 2195 
Q 3706 1856 3706 1288 
Q 3706 609 3251 259 
Q 2797 -91 1919 -91 
Q 1588 -91 1214 -16 
Q 841 59 441 206 
L 441 856 
Q 825 641 1194 531 
Q 1563 422 1919 422 
Q 2459 422 2753 634 
Q 3047 847 3047 1241 
Q 3047 1584 2836 1778 
Q 2625 1972 2144 2069 
L 1759 2144 
Q 1053 2284 737 2584 
Q 422 2884 422 3419 
Q 422 4038 858 4394 
Q 1294 4750 2059 4750 
Q 2388 4750 2728 4690 
Q 3069 4631 3425 4513 
z
" transform="scale(0.015625)"/>
     </defs>
     <use xlink:href="#DejaVuSans-50"/>
     <use xlink:href="#DejaVuSans-61" x="55.802734"/>
     <use xlink:href="#DejaVuSans-74" x="117.082031"/>
     <use xlink:href="#DejaVuSans-63" x="156.291016"/>
     <use xlink:href="#DejaVuSans-68" x="211.271484"/>
     <use xlink:href="#DejaVuSans-54" x="274.650391"/>
     <use xlink:href="#DejaVuSans-53" x="335.734375"/>
     <use xlink:href="#DejaVuSans-54" x="399.210938"/>
    </g>
   </g>
  </g>
  <g id="axes_3">
   <g id="patch_12">
    <path d="M 1258.094118 338.4 
L 1684.8 338.4 
L 1684.8 86.4 
L 1258.094118 86.4 
z
" style="fill: #ffffff"/>
   </g>
   <g id="matplotlib.axis_5"/>
   <g id="matplotlib.axis_6"/>
   <g id="line2d_5">
    <path d="M 1277.48984 275.395601 
L 1282.553997 289.711746 
L 1283.566828 289.711746 
L 1284.57966 295.446023 
L 1285.592491 295.446023 
L 1287.618154 301.167269 
L 1288.630985 301.167269 
L 1289.643817 306.901547 
L 1291.66948 306.901547 
L 1293.695142 312.622792 
L 1294.707974 312.622792 
L 1295.720805 315.489931 
L 1296.733637 315.489931 
L 1297.746468 318.35707 
L 1298.7593 318.35707 
L 1300.784963 324.078315 
L 1301.797794 324.078315 
L 1302.810625 326.945455 
L 1305.84912 326.945455 
L 1308.887614 309.76217 
L 1310.913277 286.851122 
L 1311.926108 272.534977 
L 1312.93894 255.358208 
L 1313.951771 246.763305 
L 1318.003097 189.492202 
L 1322.054423 155.132156 
L 1323.067254 149.397871 
L 1324.080085 146.537253 
L 1325.092917 140.809494 
L 1326.105748 132.221104 
L 1327.11858 129.360487 
L 1328.131411 120.765585 
L 1331.169905 120.765585 
L 1332.182737 123.626202 
L 1333.195568 120.765585 
L 1335.221231 120.765585 
L 1338.259725 129.360487 
L 1339.272557 135.081734 
L 1340.285388 143.676624 
L 1341.29822 149.404396 
L 1342.311051 152.265013 
L 1344.336714 169.448305 
L 1347.375208 186.631584 
L 1348.38804 189.492202 
L 1349.400871 195.219974 
L 1350.413703 198.080591 
L 1351.426534 203.814864 
L 1352.439366 203.814864 
L 1353.452197 206.675493 
L 1354.465028 206.675493 
L 1355.47786 212.403253 
L 1358.516354 212.403253 
L 1360.542017 218.131013 
L 1362.56768 218.131013 
L 1367.631837 232.447162 
L 1368.644668 232.447162 
L 1370.670331 238.168409 
L 1371.683163 243.902682 
L 1381.811477 272.534977 
L 1382.824309 272.534977 
L 1383.83714 278.262737 
L 1385.862803 278.262737 
L 1386.875634 283.9905 
L 1388.901297 283.9905 
L 1389.914129 289.711746 
L 1390.92696 289.711746 
L 1391.939791 295.446023 
L 1394.978286 295.446023 
L 1395.991117 301.167269 
L 1398.01678 301.167269 
L 1400.042443 306.901547 
L 1403.080937 306.901547 
L 1406.119431 289.711746 
L 1408.145094 272.534977 
L 1409.157926 258.218831 
L 1411.183589 241.035546 
L 1415.234914 195.219974 
L 1416.247746 180.903825 
L 1417.260577 172.308922 
L 1418.273409 160.859915 
L 1419.28624 152.265013 
L 1420.299072 146.537253 
L 1422.324734 140.809494 
L 1423.337566 135.081734 
L 1424.350397 123.632727 
L 1425.363229 115.037825 
L 1426.37606 109.310065 
L 1427.388892 100.721675 
L 1429.414554 100.721675 
L 1430.427386 103.582293 
L 1432.453049 103.582293 
L 1433.46588 109.310065 
L 1434.478712 112.177195 
L 1437.517206 129.353962 
L 1438.530037 137.948864 
L 1440.5557 149.404396 
L 1441.568532 152.271526 
L 1442.581363 157.992773 
L 1443.594194 166.581163 
L 1446.632689 183.764442 
L 1447.64552 186.631584 
L 1448.658352 192.352831 
L 1449.671183 195.219974 
L 1450.684014 200.947734 
L 1452.709677 206.675493 
L 1453.722509 212.403253 
L 1454.73534 212.403253 
L 1455.748172 218.131013 
L 1462.837992 238.168409 
L 1463.850823 238.168409 
L 1465.876486 243.902682 
L 1466.889317 243.902682 
L 1468.91498 249.623929 
L 1470.940643 249.623929 
L 1472.966306 255.358208 
L 1474.991969 255.358208 
L 1477.017632 261.079455 
L 1478.030463 261.079455 
L 1479.043295 266.81373 
L 1481.068957 266.81373 
L 1483.09462 272.534977 
L 1484.107452 272.534977 
L 1486.133115 278.262737 
L 1488.158777 278.262737 
L 1489.171609 283.9905 
L 1493.222935 283.9905 
L 1495.248597 289.711746 
L 1499.299923 289.711746 
L 1500.312755 286.851122 
L 1501.325586 278.262737 
L 1502.338418 275.395601 
L 1503.351249 266.81373 
L 1504.36408 261.079455 
L 1505.376912 249.623929 
L 1506.389743 241.035546 
L 1507.402575 229.58002 
L 1508.415406 223.85226 
L 1512.466732 189.492202 
L 1514.492395 166.587675 
L 1516.518058 149.404396 
L 1517.530889 143.670111 
L 1518.54372 143.670111 
L 1521.582215 126.493344 
L 1523.607878 109.310065 
L 1524.620709 103.582293 
L 1526.646372 97.854545 
L 1527.659203 100.721675 
L 1530.697698 100.721675 
L 1532.72336 112.177195 
L 1533.736192 115.037825 
L 1535.761855 132.221104 
L 1536.774686 137.948864 
L 1537.787518 146.537253 
L 1539.81318 157.992773 
L 1540.826012 166.581163 
L 1542.851675 178.036682 
L 1543.864506 186.631584 
L 1544.877338 189.492202 
L 1546.903001 200.947734 
L 1547.915832 203.808351 
L 1548.928663 209.54263 
L 1549.941495 212.403253 
L 1550.954326 218.131013 
L 1552.979989 223.858779 
L 1553.992821 223.858779 
L 1555.005652 229.58002 
L 1557.031315 229.58002 
L 1559.056978 235.307786 
L 1560.069809 235.307786 
L 1561.082641 238.168409 
L 1562.095472 238.168409 
L 1563.108303 241.035546 
L 1564.121135 241.035546 
L 1565.133966 243.902682 
L 1566.146798 243.902682 
L 1567.159629 246.763305 
L 1568.172461 246.763305 
L 1569.185292 249.623929 
L 1570.198123 249.623929 
L 1571.210955 252.491071 
L 1573.236618 252.491071 
L 1575.262281 258.218831 
L 1577.287943 258.218831 
L 1579.313606 263.946591 
L 1582.352101 263.946591 
L 1584.377764 269.674354 
L 1585.390595 269.674354 
L 1586.403426 272.534977 
L 1587.416258 272.534977 
L 1588.429089 275.402117 
L 1590.454752 275.402117 
L 1591.467584 278.262737 
L 1595.518909 278.262737 
L 1598.557404 269.674354 
L 1600.583066 258.218831 
L 1601.595898 255.351689 
L 1604.634392 238.174922 
L 1606.660055 220.998155 
L 1607.672886 215.263877 
L 1608.685718 203.808351 
L 1609.698549 195.219974 
L 1612.737044 160.853403 
L 1613.749875 152.265013 
L 1614.762706 146.543766 
L 1615.775538 143.676624 
L 1616.788369 137.948864 
L 1617.801201 137.948864 
L 1618.814032 132.221104 
L 1619.826864 123.626202 
L 1621.852526 112.170682 
L 1622.865358 112.170682 
L 1623.878189 109.310065 
L 1627.929515 109.310065 
L 1628.942347 112.170682 
L 1629.955178 112.170682 
L 1630.968009 117.904955 
L 1631.980841 120.765585 
L 1632.993672 126.493344 
L 1634.006504 126.493344 
L 1635.019335 132.221104 
L 1637.044998 137.948864 
L 1639.070661 149.404396 
L 1641.096324 155.132156 
L 1643.121987 166.581163 
L 1644.134818 166.581163 
L 1646.160481 178.036682 
L 1647.173312 178.036682 
L 1649.198975 189.492202 
L 1650.211807 189.492202 
L 1652.237469 200.947734 
L 1653.250301 200.947734 
L 1654.263132 206.675493 
L 1658.314458 218.131013 
L 1659.327289 218.131013 
L 1661.352952 223.858779 
L 1662.365784 223.858779 
L 1664.391447 229.58002 
L 1665.404278 229.58002 
L 1665.404278 229.58002 
" clip-path="url(#p1a53a23b5f)" style="fill: none; stroke: #000000; stroke-width: 1.5; stroke-linecap: square"/>
   </g>
   <g id="line2d_6">
    <path d="M 1471.953475 251.170351 
L 1472.966306 255.838307 
L 1473.979137 252.208646 
L 1474.991969 253.763734 
L 1476.0048 258.543983 
L 1477.017632 256.246526 
L 1478.030463 253.451831 
L 1479.043295 251.479136 
L 1480.056126 254.685877 
L 1481.068957 259.964851 
L 1482.081789 260.425391 
L 1484.107452 271.134953 
L 1485.120283 273.843923 
L 1486.133115 276.895296 
L 1487.145946 278.712341 
L 1488.158777 279.094382 
L 1489.171609 280.285743 
L 1490.18444 279.32258 
L 1491.197272 278.125906 
L 1492.210103 276.533694 
L 1493.222935 274.681333 
L 1494.235766 273.679488 
L 1495.248597 270.158223 
L 1496.261429 268.004125 
L 1497.27426 266.327995 
L 1498.287092 262.850124 
L 1499.299923 260.616111 
L 1500.312755 260.504492 
L 1501.325586 258.467999 
L 1503.351249 250.288378 
L 1504.36408 246.859746 
L 1505.376912 242.71216 
L 1506.389743 236.325495 
L 1507.402575 230.833944 
L 1508.415406 227.495535 
L 1513.479563 202.911258 
L 1514.492395 200.416245 
L 1515.505226 195.894287 
L 1516.518058 191.950013 
L 1517.530889 189.561253 
L 1518.54372 186.306053 
L 1519.556552 181.545093 
L 1520.569383 179.547071 
L 1521.582215 177.286189 
L 1522.595046 174.175357 
L 1523.607878 173.554899 
L 1524.620709 170.829899 
L 1525.63354 169.430745 
L 1526.646372 167.525125 
L 1527.659203 163.868489 
L 1528.672035 165.26217 
L 1529.684866 161.950701 
L 1530.697698 163.155434 
L 1531.710529 163.711209 
L 1532.72336 163.086234 
L 1533.736192 163.754815 
L 1534.749023 164.903579 
L 1535.761855 164.680358 
L 1536.774686 169.135898 
L 1537.787518 169.820651 
L 1538.800349 171.467485 
L 1539.81318 174.042183 
L 1540.826012 175.431188 
L 1543.864506 188.699206 
L 1544.877338 194.407637 
L 1545.890169 198.222491 
L 1546.903001 199.940544 
L 1547.915832 205.891802 
L 1548.928663 208.8515 
L 1549.941495 213.485131 
L 1550.954326 220.033202 
L 1552.979989 228.066897 
L 1553.992821 226.503626 
L 1555.005652 227.971413 
L 1556.018483 230.067487 
L 1557.031315 230.219489 
L 1559.056978 235.162154 
L 1560.069809 235.340228 
L 1561.082641 235.647845 
L 1562.095472 235.239413 
L 1564.121135 242.014212 
L 1565.133966 240.344529 
L 1566.146798 243.827501 
L 1567.159629 246.153863 
L 1568.172461 251.216968 
L 1569.185292 253.212794 
L 1570.198123 251.619094 
L 1571.210955 255.054599 
L 1572.223786 257.004516 
L 1573.236618 259.709378 
L 1574.249449 261.499854 
L 1575.262281 260.715757 
L 1576.275112 259.597475 
L 1577.287943 259.76648 
L 1578.300775 262.312007 
L 1579.313606 268.45464 
L 1580.326438 272.911827 
L 1581.339269 275.350092 
L 1582.352101 279.347412 
L 1583.364932 279.692436 
L 1584.377764 281.066793 
L 1585.390595 282.032684 
L 1586.403426 281.335268 
L 1587.416258 281.471152 
L 1588.429089 281.051738 
L 1589.441921 278.91142 
L 1590.454752 277.949143 
L 1591.467584 275.402589 
L 1592.480415 273.19231 
L 1593.493246 273.167371 
L 1594.506078 270.353831 
L 1595.518909 268.306535 
L 1596.531741 265.776028 
L 1597.544572 261.273534 
L 1598.557404 257.958682 
L 1599.570235 253.627248 
L 1600.583066 248.623655 
L 1601.595898 245.776852 
L 1602.608729 240.62154 
L 1603.621561 236.455463 
L 1605.647224 226.829628 
L 1606.660055 222.923806 
L 1607.672886 218.550608 
L 1608.685718 215.074526 
L 1609.698549 211.160433 
L 1610.711381 205.415694 
L 1611.724212 201.960175 
L 1612.737044 199.374939 
L 1614.762706 192.012695 
L 1615.775538 189.440973 
L 1616.788369 185.075958 
L 1617.801201 181.343923 
L 1618.814032 178.502629 
L 1619.826864 174.164234 
L 1620.839695 170.780448 
L 1621.852526 169.571252 
L 1622.865358 166.46368 
L 1623.878189 165.081529 
L 1624.891021 164.576727 
L 1625.903852 164.342348 
L 1626.916684 164.802445 
L 1627.929515 164.604606 
L 1629.955178 165.657549 
L 1630.968009 164.486911 
L 1631.980841 165.024019 
L 1632.993672 166.511944 
L 1634.006504 167.607325 
L 1635.019335 170.411743 
L 1636.032167 170.27299 
L 1637.044998 171.352253 
L 1638.057829 174.405698 
L 1639.070661 175.407791 
L 1641.096324 183.876131 
L 1642.109155 189.312155 
L 1643.121987 196.013575 
L 1644.134818 200.255954 
L 1646.160481 211.398302 
L 1647.173312 213.804048 
L 1649.198975 224.206825 
L 1650.211807 228.013301 
L 1651.224638 227.796864 
L 1652.237469 226.696949 
L 1653.250301 228.793821 
L 1654.263132 232.08811 
L 1655.275964 234.475365 
L 1656.288795 236.43467 
L 1657.301627 237.80088 
L 1658.314458 235.802822 
L 1659.327289 236.325424 
L 1660.340121 237.514375 
L 1661.352952 239.357633 
L 1662.365784 237.392058 
L 1663.378615 238.523163 
L 1664.391447 240.303013 
L 1665.404278 243.102348 
L 1665.404278 243.102348 
" clip-path="url(#p1a53a23b5f)" style="fill: none; stroke: #3883d7; stroke-width: 1.5; stroke-linecap: square"/>
   </g>
   <g id="patch_13">
    <path d="M 1258.094118 338.4 
L 1258.094118 86.4 
" style="fill: none; stroke: #000000; stroke-width: 0.8; stroke-linejoin: miter; stroke-linecap: square"/>
   </g>
   <g id="patch_14">
    <path d="M 1684.8 338.4 
L 1684.8 86.4 
" style="fill: none; stroke: #000000; stroke-width: 0.8; stroke-linejoin: miter; stroke-linecap: square"/>
   </g>
   <g id="patch_15">
    <path d="M 1258.094118 338.4 
L 1684.8 338.4 
" style="fill: none; stroke: #000000; stroke-width: 0.8; stroke-linejoin: miter; stroke-linecap: square"/>
   </g>
   <g id="patch_16">
    <path d="M 1258.094118 86.4 
L 1684.8 86.4 
" style="fill: none; stroke: #000000; stroke-width: 0.8; stroke-linejoin: miter; stroke-linecap: square"/>
   </g>
   <g id="text_3">
    <!-- FEDformer -->
    <g transform="translate(1423.432059 80.4)scale(0.18 -0.18)">
     <defs>
      <path id="DejaVuSans-45" d="M 628 4666 
L 3578 4666 
L 3578 4134 
L 1259 4134 
L 1259 2753 
L 3481 2753 
L 3481 2222 
L 1259 2222 
L 1259 531 
L 3634 531 
L 3634 0 
L 628 0 
L 628 4666 
z
" transform="scale(0.015625)"/>
      <path id="DejaVuSans-44" d="M 1259 4147 
L 1259 519 
L 2022 519 
Q 2988 519 3436 956 
Q 3884 1394 3884 2338 
Q 3884 3275 3436 3711 
Q 2988 4147 2022 4147 
L 1259 4147 
z
M 628 4666 
L 1925 4666 
Q 3281 4666 3915 4102 
Q 4550 3538 4550 2338 
Q 4550 1131 3912 565 
Q 3275 0 1925 0 
L 628 0 
L 628 4666 
z
" transform="scale(0.015625)"/>
      <path id="DejaVuSans-66" d="M 2375 4863 
L 2375 4384 
L 1825 4384 
Q 1516 4384 1395 4259 
Q 1275 4134 1275 3809 
L 1275 3500 
L 2222 3500 
L 2222 3053 
L 1275 3053 
L 1275 0 
L 697 0 
L 697 3053 
L 147 3053 
L 147 3500 
L 697 3500 
L 697 3744 
Q 697 4328 969 4595 
Q 1241 4863 1831 4863 
L 2375 4863 
z
" transform="scale(0.015625)"/>
      <path id="DejaVuSans-6f" d="M 1959 3097 
Q 1497 3097 1228 2736 
Q 959 2375 959 1747 
Q 959 1119 1226 758 
Q 1494 397 1959 397 
Q 2419 397 2687 759 
Q 2956 1122 2956 1747 
Q 2956 2369 2687 2733 
Q 2419 3097 1959 3097 
z
M 1959 3584 
Q 2709 3584 3137 3096 
Q 3566 2609 3566 1747 
Q 3566 888 3137 398 
Q 2709 -91 1959 -91 
Q 1206 -91 779 398 
Q 353 888 353 1747 
Q 353 2609 779 3096 
Q 1206 3584 1959 3584 
z
" transform="scale(0.015625)"/>
      <path id="DejaVuSans-72" d="M 2631 2963 
Q 2534 3019 2420 3045 
Q 2306 3072 2169 3072 
Q 1681 3072 1420 2755 
Q 1159 2438 1159 1844 
L 1159 0 
L 581 0 
L 581 3500 
L 1159 3500 
L 1159 2956 
Q 1341 3275 1631 3429 
Q 1922 3584 2338 3584 
Q 2397 3584 2469 3576 
Q 2541 3569 2628 3553 
L 2631 2963 
z
" transform="scale(0.015625)"/>
      <path id="DejaVuSans-6d" d="M 3328 2828 
Q 3544 3216 3844 3400 
Q 4144 3584 4550 3584 
Q 5097 3584 5394 3201 
Q 5691 2819 5691 2113 
L 5691 0 
L 5113 0 
L 5113 2094 
Q 5113 2597 4934 2840 
Q 4756 3084 4391 3084 
Q 3944 3084 3684 2787 
Q 3425 2491 3425 1978 
L 3425 0 
L 2847 0 
L 2847 2094 
Q 2847 2600 2669 2842 
Q 2491 3084 2119 3084 
Q 1678 3084 1418 2786 
Q 1159 2488 1159 1978 
L 1159 0 
L 581 0 
L 581 3500 
L 1159 3500 
L 1159 2956 
Q 1356 3278 1631 3431 
Q 1906 3584 2284 3584 
Q 2666 3584 2933 3390 
Q 3200 3197 3328 2828 
z
" transform="scale(0.015625)"/>
     </defs>
     <use xlink:href="#DejaVuSans-46"/>
     <use xlink:href="#DejaVuSans-45" x="57.519531"/>
     <use xlink:href="#DejaVuSans-44" x="120.703125"/>
     <use xlink:href="#DejaVuSans-66" x="197.705078"/>
     <use xlink:href="#DejaVuSans-6f" x="232.910156"/>
     <use xlink:href="#DejaVuSans-72" x="294.091797"/>
     <use xlink:href="#DejaVuSans-6d" x="333.455078"/>
     <use xlink:href="#DejaVuSans-65" x="430.867188"/>
     <use xlink:href="#DejaVuSans-72" x="492.390625"/>
    </g>
   </g>
  </g>
  <g id="axes_4">
   <g id="patch_17">
    <path d="M 234 640.8 
L 660.705882 640.8 
L 660.705882 388.8 
L 234 388.8 
z
" style="fill: #ffffff"/>
   </g>
   <g id="matplotlib.axis_7"/>
   <g id="matplotlib.axis_8"/>
   <g id="line2d_7">
    <path d="M 253.395722 577.795601 
L 258.459879 592.111746 
L 259.472711 592.111746 
L 260.485542 597.846023 
L 261.498373 597.846023 
L 263.524036 603.567269 
L 264.536868 603.567269 
L 265.549699 609.301547 
L 267.575362 609.301547 
L 269.601025 615.022792 
L 270.613856 615.022792 
L 271.626688 617.889931 
L 272.639519 617.889931 
L 273.652351 620.75707 
L 274.665182 620.75707 
L 276.690845 626.478315 
L 277.703676 626.478315 
L 278.716508 629.345455 
L 281.755002 629.345455 
L 284.793496 612.16217 
L 286.819159 589.251122 
L 287.831991 574.934977 
L 288.844822 557.758208 
L 289.857653 549.163305 
L 293.908979 491.892202 
L 297.960305 457.532156 
L 298.973136 451.797871 
L 299.985968 448.937253 
L 300.998799 443.209494 
L 302.011631 434.621104 
L 303.024462 431.760487 
L 304.037294 423.165585 
L 307.075788 423.165585 
L 308.088619 426.026202 
L 309.101451 423.165585 
L 311.127114 423.165585 
L 314.165608 431.760487 
L 315.178439 437.481734 
L 316.191271 446.076624 
L 317.204102 451.804396 
L 318.216934 454.665013 
L 320.242596 471.848305 
L 323.281091 489.031584 
L 324.293922 491.892202 
L 325.306754 497.619974 
L 326.319585 500.480591 
L 327.332416 506.214864 
L 328.345248 506.214864 
L 329.358079 509.075493 
L 330.370911 509.075493 
L 331.383742 514.803253 
L 334.422236 514.803253 
L 336.447899 520.531013 
L 338.473562 520.531013 
L 343.537719 534.847162 
L 344.550551 534.847162 
L 346.576214 540.568409 
L 347.589045 546.302682 
L 357.717359 574.934977 
L 358.730191 574.934977 
L 359.743022 580.662737 
L 361.768685 580.662737 
L 362.781517 586.3905 
L 364.807179 586.3905 
L 365.820011 592.111746 
L 366.832842 592.111746 
L 367.845674 597.846023 
L 370.884168 597.846023 
L 371.896999 603.567269 
L 373.922662 603.567269 
L 375.948325 609.301547 
L 378.98682 609.301547 
L 382.025314 592.111746 
L 384.050977 574.934977 
L 385.063808 560.618831 
L 387.089471 543.435546 
L 391.140797 497.619974 
L 392.153628 483.303825 
L 393.16646 474.708922 
L 394.179291 463.259915 
L 395.192122 454.665013 
L 396.204954 448.937253 
L 398.230617 443.209494 
L 399.243448 437.481734 
L 400.25628 426.032727 
L 401.269111 417.437825 
L 402.281942 411.710065 
L 403.294774 403.121675 
L 405.320437 403.121675 
L 406.333268 405.982293 
L 408.358931 405.982293 
L 409.371762 411.710065 
L 410.384594 414.577195 
L 413.423088 431.753962 
L 414.43592 440.348864 
L 416.461582 451.804396 
L 417.474414 454.671526 
L 418.487245 460.392773 
L 419.500077 468.981163 
L 422.538571 486.164442 
L 423.551403 489.031584 
L 424.564234 494.752831 
L 425.577065 497.619974 
L 426.589897 503.347734 
L 428.61556 509.075493 
L 429.628391 514.803253 
L 430.641223 514.803253 
L 431.654054 520.531013 
L 438.743874 540.568409 
L 439.756705 540.568409 
L 441.782368 546.302682 
L 442.7952 546.302682 
L 444.820863 552.023929 
L 446.846525 552.023929 
L 448.872188 557.758208 
L 450.897851 557.758208 
L 452.923514 563.479455 
L 453.936345 563.479455 
L 454.949177 569.21373 
L 456.97484 569.21373 
L 459.000503 574.934977 
L 460.013334 574.934977 
L 462.038997 580.662737 
L 464.06466 580.662737 
L 465.077491 586.3905 
L 469.128817 586.3905 
L 471.15448 592.111746 
L 475.205806 592.111746 
L 476.218637 589.251122 
L 477.231468 580.662737 
L 478.2443 577.795601 
L 479.257131 569.21373 
L 480.269963 563.479455 
L 481.282794 552.023929 
L 482.295626 543.435546 
L 483.308457 531.98002 
L 484.321288 526.25226 
L 488.372614 491.892202 
L 490.398277 468.987675 
L 492.42394 451.804396 
L 493.436771 446.070111 
L 494.449603 446.070111 
L 497.488097 428.893344 
L 499.51376 411.710065 
L 500.526591 405.982293 
L 502.552254 400.254545 
L 503.565086 403.121675 
L 506.60358 403.121675 
L 508.629243 414.577195 
L 509.642074 417.437825 
L 511.667737 434.621104 
L 512.680569 440.348864 
L 513.6934 448.937253 
L 515.719063 460.392773 
L 516.731894 468.981163 
L 518.757557 480.436682 
L 519.770389 489.031584 
L 520.78322 491.892202 
L 522.808883 503.347734 
L 523.821714 506.208351 
L 524.834546 511.94263 
L 525.847377 514.803253 
L 526.860209 520.531013 
L 528.885871 526.258779 
L 529.898703 526.258779 
L 530.911534 531.98002 
L 532.937197 531.98002 
L 534.96286 537.707786 
L 535.975691 537.707786 
L 536.988523 540.568409 
L 538.001354 540.568409 
L 539.014186 543.435546 
L 540.027017 543.435546 
L 541.039849 546.302682 
L 542.05268 546.302682 
L 543.065512 549.163305 
L 544.078343 549.163305 
L 545.091174 552.023929 
L 546.104006 552.023929 
L 547.116837 554.891071 
L 549.1425 554.891071 
L 551.168163 560.618831 
L 553.193826 560.618831 
L 555.219489 566.346591 
L 558.257983 566.346591 
L 560.283646 572.074354 
L 561.296477 572.074354 
L 562.309309 574.934977 
L 563.32214 574.934977 
L 564.334972 577.802117 
L 566.360634 577.802117 
L 567.373466 580.662737 
L 571.424792 580.662737 
L 574.463286 572.074354 
L 576.488949 560.618831 
L 577.50178 557.751689 
L 580.540275 540.574922 
L 582.565937 523.398155 
L 583.578769 517.663877 
L 584.5916 506.208351 
L 585.604432 497.619974 
L 588.642926 463.253403 
L 589.655757 454.665013 
L 590.668589 448.943766 
L 591.68142 446.076624 
L 592.694252 440.348864 
L 593.707083 440.348864 
L 594.719915 434.621104 
L 595.732746 426.026202 
L 597.758409 414.570682 
L 598.77124 414.570682 
L 599.784072 411.710065 
L 603.835397 411.710065 
L 604.848229 414.570682 
L 605.86106 414.570682 
L 606.873892 420.304955 
L 607.886723 423.165585 
L 608.899555 428.893344 
L 609.912386 428.893344 
L 610.925217 434.621104 
L 612.95088 440.348864 
L 614.976543 451.804396 
L 617.002206 457.532156 
L 619.027869 468.981163 
L 620.0407 468.981163 
L 622.066363 480.436682 
L 623.079195 480.436682 
L 625.104858 491.892202 
L 626.117689 491.892202 
L 628.143352 503.347734 
L 629.156183 503.347734 
L 630.169015 509.075493 
L 634.22034 520.531013 
L 635.233172 520.531013 
L 637.258835 526.258779 
L 638.271666 526.258779 
L 640.297329 531.98002 
L 641.31016 531.98002 
L 641.31016 531.98002 
" clip-path="url(#p1f42595512)" style="fill: none; stroke: #000000; stroke-width: 1.5; stroke-linecap: square"/>
   </g>
   <g id="line2d_8">
    <path d="M 447.859357 551.141863 
L 448.872188 572.959925 
L 449.88502 548.276569 
L 450.897851 562.277037 
L 451.910683 569.78379 
L 452.923514 574.235132 
L 453.936345 553.474601 
L 454.949177 569.267069 
L 455.962008 562.332545 
L 456.97484 575.407187 
L 457.987671 566.106981 
L 459.000503 577.880769 
L 460.013334 582.70519 
L 461.026166 571.893007 
L 462.038997 576.172403 
L 463.051828 576.840808 
L 464.06466 592.824172 
L 465.077491 588.807759 
L 466.090323 572.590069 
L 467.103154 573.003318 
L 468.115986 580.585913 
L 469.128817 582.170473 
L 470.141648 581.384959 
L 471.15448 599.74605 
L 472.167311 570.488574 
L 473.180143 585.161804 
L 474.192974 557.923393 
L 475.205806 554.0723 
L 476.218637 566.40344 
L 477.231468 554.425755 
L 478.2443 563.833187 
L 479.257131 552.274916 
L 480.269963 556.896716 
L 481.282794 516.984904 
L 482.295626 540.213809 
L 483.308457 524.306162 
L 484.321288 499.330935 
L 485.33412 516.957592 
L 486.346951 514.013322 
L 487.359783 509.654382 
L 488.372614 499.169157 
L 489.385446 514.321027 
L 490.398277 472.664718 
L 491.411108 517.058992 
L 492.42394 487.152152 
L 493.436771 489.831615 
L 494.449603 488.845179 
L 495.462434 478.314293 
L 496.475266 472.859671 
L 497.488097 453.060691 
L 498.500928 470.560691 
L 499.51376 484.744848 
L 500.526591 474.300979 
L 501.539423 466.00129 
L 502.552254 451.099385 
L 503.565086 468.738352 
L 504.577917 445.547313 
L 505.590749 456.796569 
L 506.60358 475.847477 
L 507.616411 453.542042 
L 508.629243 448.913176 
L 509.642074 447.393458 
L 510.654906 467.598993 
L 511.667737 472.090345 
L 512.680569 470.508885 
L 513.6934 452.554508 
L 514.706231 471.067831 
L 515.719063 475.724806 
L 516.731894 474.646818 
L 517.744726 477.763972 
L 518.757557 470.280209 
L 519.770389 505.078403 
L 520.78322 476.083999 
L 521.796051 495.232783 
L 522.808883 482.430742 
L 523.821714 495.991782 
L 524.834546 477.370773 
L 525.847377 510.335379 
L 526.860209 507.625984 
L 527.87304 524.863869 
L 528.885871 501.20866 
L 529.898703 515.913965 
L 530.911534 516.772381 
L 531.924366 499.094821 
L 532.937197 499.677589 
L 533.950029 525.604059 
L 534.96286 511.093795 
L 535.975691 517.065705 
L 536.988523 531.649561 
L 538.001354 523.95919 
L 539.014186 527.872681 
L 540.027017 542.947257 
L 541.039849 541.58799 
L 542.05268 529.7749 
L 543.065512 542.618918 
L 544.078343 534.331255 
L 545.091174 557.069759 
L 546.104006 538.915329 
L 547.116837 535.885936 
L 548.129669 561.421526 
L 549.1425 525.16038 
L 550.155332 554.542298 
L 551.168163 570.138379 
L 552.180994 533.04241 
L 553.193826 532.382507 
L 554.206657 547.671183 
L 555.219489 566.139146 
L 556.23232 542.311372 
L 557.245152 548.686843 
L 558.257983 539.474842 
L 560.283646 560.205015 
L 561.296477 546.182797 
L 562.309309 554.498763 
L 563.32214 554.34669 
L 564.334972 552.928726 
L 565.347803 538.0533 
L 566.360634 549.187695 
L 567.373466 541.541656 
L 568.386297 545.576313 
L 569.399129 559.901436 
L 570.41196 560.094104 
L 571.424792 542.705245 
L 572.437623 554.022566 
L 573.450454 538.029389 
L 574.463286 568.280456 
L 575.476117 540.896064 
L 576.488949 547.325096 
L 577.50178 533.970344 
L 578.514612 517.827485 
L 579.527443 512.101166 
L 580.540275 527.622113 
L 581.553106 506.637972 
L 582.565937 491.303422 
L 583.578769 495.245872 
L 584.5916 492.720394 
L 585.604432 489.170366 
L 586.617263 479.858807 
L 587.630095 480.599759 
L 588.642926 497.221861 
L 590.668589 458.450541 
L 591.68142 472.927419 
L 592.694252 470.276082 
L 593.707083 455.281544 
L 594.719915 460.049643 
L 595.732746 457.361909 
L 596.745577 439.04678 
L 597.758409 443.258536 
L 599.784072 439.498676 
L 600.796903 436.745568 
L 601.809735 440.734104 
L 602.822566 448.802814 
L 603.835397 439.595365 
L 604.848229 431.811299 
L 605.86106 439.757303 
L 606.873892 451.366176 
L 607.886723 432.781086 
L 608.899555 437.960202 
L 609.912386 453.329502 
L 610.925217 457.335075 
L 611.938049 444.542121 
L 612.95088 465.880567 
L 614.976543 452.945972 
L 615.989375 478.004869 
L 617.002206 469.763487 
L 618.015037 471.338944 
L 619.027869 461.05689 
L 620.0407 468.10537 
L 621.053532 486.920979 
L 622.066363 476.701837 
L 623.079195 490.86132 
L 624.092026 487.792749 
L 625.104858 483.708659 
L 626.117689 476.118519 
L 627.13052 512.086483 
L 628.143352 491.827104 
L 629.156183 492.370092 
L 630.169015 501.211919 
L 631.181846 498.436087 
L 632.194678 508.709622 
L 633.207509 503.454345 
L 634.22034 513.827101 
L 635.233172 525.80142 
L 636.246003 529.361916 
L 638.271666 499.361648 
L 639.284498 538.874769 
L 640.297329 521.365806 
L 641.31016 549.101722 
L 641.31016 549.101722 
" clip-path="url(#p1f42595512)" style="fill: none; stroke: #3883d7; stroke-width: 1.5; stroke-linecap: square"/>
   </g>
   <g id="patch_18">
    <path d="M 234 640.8 
L 234 388.8 
" style="fill: none; stroke: #000000; stroke-width: 0.8; stroke-linejoin: miter; stroke-linecap: square"/>
   </g>
   <g id="patch_19">
    <path d="M 660.705882 640.8 
L 660.705882 388.8 
" style="fill: none; stroke: #000000; stroke-width: 0.8; stroke-linejoin: miter; stroke-linecap: square"/>
   </g>
   <g id="patch_20">
    <path d="M 234 640.8 
L 660.705882 640.8 
" style="fill: none; stroke: #000000; stroke-width: 0.8; stroke-linejoin: miter; stroke-linecap: square"/>
   </g>
   <g id="patch_21">
    <path d="M 234 388.8 
L 660.705882 388.8 
" style="fill: none; stroke: #000000; stroke-width: 0.8; stroke-linejoin: miter; stroke-linecap: square"/>
   </g>
   <g id="text_4">
    <!-- FreTS -->
    <g transform="translate(422.583254 382.8)scale(0.18 -0.18)">
     <use xlink:href="#DejaVuSans-46"/>
     <use xlink:href="#DejaVuSans-72" x="50.269531"/>
     <use xlink:href="#DejaVuSans-65" x="89.132812"/>
     <use xlink:href="#DejaVuSans-54" x="150.65625"/>
     <use xlink:href="#DejaVuSans-53" x="211.740234"/>
    </g>
   </g>
  </g>
  <g id="axes_5">
   <g id="patch_22">
    <path d="M 746.047059 640.8 
L 1172.752941 640.8 
L 1172.752941 388.8 
L 746.047059 388.8 
z
" style="fill: #ffffff"/>
   </g>
   <g id="matplotlib.axis_9"/>
   <g id="matplotlib.axis_10"/>
   <g id="line2d_9">
    <path d="M 765.442781 577.795601 
L 770.506938 592.111746 
L 771.519769 592.111746 
L 772.532601 597.846023 
L 773.545432 597.846023 
L 775.571095 603.567269 
L 776.583927 603.567269 
L 777.596758 609.301547 
L 779.622421 609.301547 
L 781.648084 615.022792 
L 782.660915 615.022792 
L 783.673747 617.889931 
L 784.686578 617.889931 
L 785.699409 620.75707 
L 786.712241 620.75707 
L 788.737904 626.478315 
L 789.750735 626.478315 
L 790.763567 629.345455 
L 793.802061 629.345455 
L 796.840555 612.16217 
L 798.866218 589.251122 
L 799.879049 574.934977 
L 800.891881 557.758208 
L 801.904712 549.163305 
L 805.956038 491.892202 
L 810.007364 457.532156 
L 811.020195 451.797871 
L 812.033027 448.937253 
L 813.045858 443.209494 
L 814.058689 434.621104 
L 815.071521 431.760487 
L 816.084352 423.165585 
L 819.122847 423.165585 
L 820.135678 426.026202 
L 821.14851 423.165585 
L 823.174172 423.165585 
L 826.212667 431.760487 
L 827.225498 437.481734 
L 828.23833 446.076624 
L 829.251161 451.804396 
L 830.263992 454.665013 
L 832.289655 471.848305 
L 835.32815 489.031584 
L 836.340981 491.892202 
L 837.353812 497.619974 
L 838.366644 500.480591 
L 839.379475 506.214864 
L 840.392307 506.214864 
L 841.405138 509.075493 
L 842.41797 509.075493 
L 843.430801 514.803253 
L 846.469295 514.803253 
L 848.494958 520.531013 
L 850.520621 520.531013 
L 855.584778 534.847162 
L 856.59761 534.847162 
L 858.623273 540.568409 
L 859.636104 546.302682 
L 869.764418 574.934977 
L 870.77725 574.934977 
L 871.790081 580.662737 
L 873.815744 580.662737 
L 874.828575 586.3905 
L 876.854238 586.3905 
L 877.86707 592.111746 
L 878.879901 592.111746 
L 879.892733 597.846023 
L 882.931227 597.846023 
L 883.944058 603.567269 
L 885.969721 603.567269 
L 887.995384 609.301547 
L 891.033878 609.301547 
L 894.072373 592.111746 
L 896.098035 574.934977 
L 897.110867 560.618831 
L 899.13653 543.435546 
L 903.187856 497.619974 
L 904.200687 483.303825 
L 905.213518 474.708922 
L 906.22635 463.259915 
L 907.239181 454.665013 
L 908.252013 448.937253 
L 910.277676 443.209494 
L 911.290507 437.481734 
L 912.303338 426.032727 
L 913.31617 417.437825 
L 914.329001 411.710065 
L 915.341833 403.121675 
L 917.367496 403.121675 
L 918.380327 405.982293 
L 920.40599 405.982293 
L 921.418821 411.710065 
L 922.431653 414.577195 
L 925.470147 431.753962 
L 926.482978 440.348864 
L 928.508641 451.804396 
L 929.521473 454.671526 
L 930.534304 460.392773 
L 931.547136 468.981163 
L 934.58563 486.164442 
L 935.598461 489.031584 
L 936.611293 494.752831 
L 937.624124 497.619974 
L 938.636956 503.347734 
L 940.662619 509.075493 
L 941.67545 514.803253 
L 942.688281 514.803253 
L 943.701113 520.531013 
L 950.790933 540.568409 
L 951.803764 540.568409 
L 953.829427 546.302682 
L 954.842259 546.302682 
L 956.867921 552.023929 
L 958.893584 552.023929 
L 960.919247 557.758208 
L 962.94491 557.758208 
L 964.970573 563.479455 
L 965.983404 563.479455 
L 966.996236 569.21373 
L 969.021899 569.21373 
L 971.047561 574.934977 
L 972.060393 574.934977 
L 974.086056 580.662737 
L 976.111719 580.662737 
L 977.12455 586.3905 
L 981.175876 586.3905 
L 983.201539 592.111746 
L 987.252864 592.111746 
L 988.265696 589.251122 
L 989.278527 580.662737 
L 990.291359 577.795601 
L 991.30419 569.21373 
L 992.317022 563.479455 
L 993.329853 552.023929 
L 994.342684 543.435546 
L 995.355516 531.98002 
L 996.368347 526.25226 
L 1000.419673 491.892202 
L 1002.445336 468.987675 
L 1004.470999 451.804396 
L 1005.48383 446.070111 
L 1006.496662 446.070111 
L 1009.535156 428.893344 
L 1011.560819 411.710065 
L 1012.57365 405.982293 
L 1014.599313 400.254545 
L 1015.612144 403.121675 
L 1018.650639 403.121675 
L 1020.676302 414.577195 
L 1021.689133 417.437825 
L 1023.714796 434.621104 
L 1024.727627 440.348864 
L 1025.740459 448.937253 
L 1027.766122 460.392773 
L 1028.778953 468.981163 
L 1030.804616 480.436682 
L 1031.817447 489.031584 
L 1032.830279 491.892202 
L 1034.855942 503.347734 
L 1035.868773 506.208351 
L 1036.881605 511.94263 
L 1037.894436 514.803253 
L 1038.907267 520.531013 
L 1040.93293 526.258779 
L 1041.945762 526.258779 
L 1042.958593 531.98002 
L 1044.984256 531.98002 
L 1047.009919 537.707786 
L 1048.02275 537.707786 
L 1049.035582 540.568409 
L 1050.048413 540.568409 
L 1051.061245 543.435546 
L 1052.074076 543.435546 
L 1053.086907 546.302682 
L 1054.099739 546.302682 
L 1055.11257 549.163305 
L 1056.125402 549.163305 
L 1057.138233 552.023929 
L 1058.151065 552.023929 
L 1059.163896 554.891071 
L 1061.189559 554.891071 
L 1063.215222 560.618831 
L 1065.240885 560.618831 
L 1067.266548 566.346591 
L 1070.305042 566.346591 
L 1072.330705 572.074354 
L 1073.343536 572.074354 
L 1074.356368 574.934977 
L 1075.369199 574.934977 
L 1076.38203 577.802117 
L 1078.407693 577.802117 
L 1079.420525 580.662737 
L 1083.47185 580.662737 
L 1086.510345 572.074354 
L 1088.536008 560.618831 
L 1089.548839 557.751689 
L 1092.587333 540.574922 
L 1094.612996 523.398155 
L 1095.625828 517.663877 
L 1096.638659 506.208351 
L 1097.65149 497.619974 
L 1100.689985 463.253403 
L 1101.702816 454.665013 
L 1102.715648 448.943766 
L 1103.728479 446.076624 
L 1104.741311 440.348864 
L 1105.754142 440.348864 
L 1106.766973 434.621104 
L 1107.779805 426.026202 
L 1109.805468 414.570682 
L 1110.818299 414.570682 
L 1111.831131 411.710065 
L 1115.882456 411.710065 
L 1116.895288 414.570682 
L 1117.908119 414.570682 
L 1118.920951 420.304955 
L 1119.933782 423.165585 
L 1120.946613 428.893344 
L 1121.959445 428.893344 
L 1122.972276 434.621104 
L 1124.997939 440.348864 
L 1127.023602 451.804396 
L 1129.049265 457.532156 
L 1131.074928 468.981163 
L 1132.087759 468.981163 
L 1134.113422 480.436682 
L 1135.126253 480.436682 
L 1137.151916 491.892202 
L 1138.164748 491.892202 
L 1140.190411 503.347734 
L 1141.203242 503.347734 
L 1142.216073 509.075493 
L 1146.267399 520.531013 
L 1147.280231 520.531013 
L 1149.305894 526.258779 
L 1150.318725 526.258779 
L 1152.344388 531.98002 
L 1153.357219 531.98002 
L 1153.357219 531.98002 
" clip-path="url(#p6d2f38391c)" style="fill: none; stroke: #000000; stroke-width: 1.5; stroke-linecap: square"/>
   </g>
   <g id="line2d_10">
    <path d="M 959.906416 552.274385 
L 961.932079 557.194237 
L 962.94491 558.909262 
L 963.957741 559.88376 
L 964.970573 561.513379 
L 965.983404 561.013306 
L 966.996236 564.792489 
L 968.009067 565.93709 
L 969.021899 568.375001 
L 970.03473 567.479213 
L 971.047561 568.351196 
L 972.060393 568.37663 
L 973.073224 569.971605 
L 974.086056 569.660269 
L 975.098887 569.682515 
L 976.111719 570.604019 
L 977.12455 571.029951 
L 978.137381 577.614101 
L 979.150213 570.845643 
L 980.163044 571.360628 
L 981.175876 571.0048 
L 982.188707 570.331082 
L 983.201539 566.811765 
L 984.21437 567.759271 
L 985.227202 566.5118 
L 986.240033 564.70308 
L 988.265696 559.660805 
L 989.278527 556.43692 
L 990.291359 552.067725 
L 991.30419 549.087659 
L 993.329853 536.849966 
L 994.342684 527.477001 
L 996.368347 515.619225 
L 999.406842 494.965885 
L 1000.419673 491.501368 
L 1001.432504 478.221165 
L 1002.445336 475.122183 
L 1004.470999 464.463046 
L 1005.48383 457.028291 
L 1006.496662 456.352093 
L 1007.509493 452.461132 
L 1008.522324 443.120136 
L 1009.535156 443.930323 
L 1010.547987 442.662944 
L 1011.560819 440.146093 
L 1012.57365 436.020628 
L 1013.586482 434.792339 
L 1014.599313 433.229245 
L 1015.612144 432.745698 
L 1016.624976 432.584433 
L 1018.650639 432.949985 
L 1019.66347 433.779017 
L 1020.676302 435.205819 
L 1023.714796 443.02738 
L 1024.727627 441.78106 
L 1025.740459 449.261707 
L 1026.75329 451.294037 
L 1027.766122 453.616095 
L 1028.778953 460.841462 
L 1029.791785 459.652174 
L 1032.830279 468.857693 
L 1033.84311 470.069227 
L 1034.855942 478.872194 
L 1035.868773 479.675969 
L 1036.881605 483.124828 
L 1037.894436 488.948049 
L 1038.907267 489.379329 
L 1040.93293 493.034335 
L 1041.945762 493.763968 
L 1042.958593 497.65222 
L 1043.971425 499.812287 
L 1044.984256 502.490208 
L 1045.997087 505.612304 
L 1048.02275 509.921404 
L 1049.035582 506.264503 
L 1050.048413 514.936279 
L 1051.061245 517.610942 
L 1055.11257 530.351523 
L 1056.125402 532.809695 
L 1057.138233 533.675709 
L 1058.151065 540.534143 
L 1059.163896 534.21535 
L 1060.176727 541.256923 
L 1061.189559 539.812462 
L 1062.20239 544.360616 
L 1063.215222 546.001819 
L 1064.228053 546.896295 
L 1065.240885 548.904626 
L 1066.253716 548.637675 
L 1067.266548 553.269429 
L 1068.279379 554.795824 
L 1069.29221 549.304025 
L 1070.305042 547.002743 
L 1071.317873 552.275837 
L 1072.330705 560.780397 
L 1073.343536 553.670918 
L 1074.356368 554.129615 
L 1075.369199 552.765389 
L 1076.38203 555.381337 
L 1077.394862 553.259191 
L 1078.407693 553.439921 
L 1079.420525 553.238894 
L 1080.433356 551.896665 
L 1081.446188 551.038143 
L 1082.459019 548.990705 
L 1083.47185 547.961725 
L 1084.484682 545.975109 
L 1085.497513 543.494408 
L 1086.510345 541.729542 
L 1087.523176 536.272512 
L 1088.536008 525.194564 
L 1089.548839 533.058563 
L 1090.56167 520.035923 
L 1091.574502 514.839166 
L 1092.587333 513.470688 
L 1093.600165 501.786168 
L 1095.625828 489.829507 
L 1096.638659 483.322225 
L 1097.65149 472.900532 
L 1099.677153 466.194932 
L 1100.689985 461.050053 
L 1102.715648 452.423973 
L 1105.754142 441.878758 
L 1106.766973 437.1814 
L 1107.779805 434.740515 
L 1108.792636 431.872599 
L 1109.805468 429.867634 
L 1110.818299 429.371529 
L 1111.831131 427.036878 
L 1112.843962 431.683651 
L 1113.856793 426.579845 
L 1114.869625 425.795464 
L 1115.882456 426.275009 
L 1116.895288 423.85272 
L 1117.908119 429.431979 
L 1118.920951 430.713651 
L 1119.933782 433.262738 
L 1120.946613 435.049513 
L 1121.959445 435.634903 
L 1122.972276 441.37029 
L 1123.985108 443.014397 
L 1124.997939 444.004004 
L 1126.010771 442.049552 
L 1127.023602 456.116474 
L 1128.036433 455.527277 
L 1129.049265 456.919824 
L 1130.062096 464.221087 
L 1131.074928 464.103445 
L 1133.100591 471.316096 
L 1134.113422 474.725529 
L 1135.126253 477.612307 
L 1136.139085 479.55978 
L 1137.151916 482.886571 
L 1138.164748 484.753119 
L 1139.177579 487.28058 
L 1140.190411 490.273929 
L 1141.203242 491.548269 
L 1142.216073 495.126743 
L 1143.228905 497.029689 
L 1144.241736 500.147056 
L 1146.267399 504.883574 
L 1147.280231 508.745452 
L 1148.293062 510.786284 
L 1149.305894 513.901118 
L 1150.318725 514.996499 
L 1151.331556 525.105722 
L 1152.344388 518.469464 
L 1153.357219 525.863323 
L 1153.357219 525.863323 
" clip-path="url(#p6d2f38391c)" style="fill: none; stroke: #3883d7; stroke-width: 1.5; stroke-linecap: square"/>
   </g>
   <g id="patch_23">
    <path d="M 746.047059 640.8 
L 746.047059 388.8 
" style="fill: none; stroke: #000000; stroke-width: 0.8; stroke-linejoin: miter; stroke-linecap: square"/>
   </g>
   <g id="patch_24">
    <path d="M 1172.752941 640.8 
L 1172.752941 388.8 
" style="fill: none; stroke: #000000; stroke-width: 0.8; stroke-linejoin: miter; stroke-linecap: square"/>
   </g>
   <g id="patch_25">
    <path d="M 746.047059 640.8 
L 1172.752941 640.8 
" style="fill: none; stroke: #000000; stroke-width: 0.8; stroke-linejoin: miter; stroke-linecap: square"/>
   </g>
   <g id="patch_26">
    <path d="M 746.047059 388.8 
L 1172.752941 388.8 
" style="fill: none; stroke: #000000; stroke-width: 0.8; stroke-linejoin: miter; stroke-linecap: square"/>
   </g>
   <g id="text_5">
    <!-- DLinear -->
    <g transform="translate(924.498281 382.8)scale(0.18 -0.18)">
     <defs>
      <path id="DejaVuSans-4c" d="M 628 4666 
L 1259 4666 
L 1259 531 
L 3531 531 
L 3531 0 
L 628 0 
L 628 4666 
z
" transform="scale(0.015625)"/>
      <path id="DejaVuSans-69" d="M 603 3500 
L 1178 3500 
L 1178 0 
L 603 0 
L 603 3500 
z
M 603 4863 
L 1178 4863 
L 1178 4134 
L 603 4134 
L 603 4863 
z
" transform="scale(0.015625)"/>
      <path id="DejaVuSans-6e" d="M 3513 2113 
L 3513 0 
L 2938 0 
L 2938 2094 
Q 2938 2591 2744 2837 
Q 2550 3084 2163 3084 
Q 1697 3084 1428 2787 
Q 1159 2491 1159 1978 
L 1159 0 
L 581 0 
L 581 3500 
L 1159 3500 
L 1159 2956 
Q 1366 3272 1645 3428 
Q 1925 3584 2291 3584 
Q 2894 3584 3203 3211 
Q 3513 2838 3513 2113 
z
" transform="scale(0.015625)"/>
     </defs>
     <use xlink:href="#DejaVuSans-44"/>
     <use xlink:href="#DejaVuSans-4c" x="77.001953"/>
     <use xlink:href="#DejaVuSans-69" x="132.714844"/>
     <use xlink:href="#DejaVuSans-6e" x="160.498047"/>
     <use xlink:href="#DejaVuSans-65" x="223.876953"/>
     <use xlink:href="#DejaVuSans-61" x="285.400391"/>
     <use xlink:href="#DejaVuSans-72" x="346.679688"/>
    </g>
   </g>
  </g>
  <g id="axes_6">
   <g id="patch_27">
    <path d="M 1258.094118 640.8 
L 1684.8 640.8 
L 1684.8 388.8 
L 1258.094118 388.8 
z
" style="fill: #ffffff"/>
   </g>
   <g id="matplotlib.axis_11"/>
   <g id="matplotlib.axis_12"/>
   <g id="line2d_11">
    <path d="M 1277.48984 577.795601 
L 1282.553997 592.111746 
L 1283.566828 592.111746 
L 1284.57966 597.846023 
L 1285.592491 597.846023 
L 1287.618154 603.567269 
L 1288.630985 603.567269 
L 1289.643817 609.301547 
L 1291.66948 609.301547 
L 1293.695142 615.022792 
L 1294.707974 615.022792 
L 1295.720805 617.889931 
L 1296.733637 617.889931 
L 1297.746468 620.75707 
L 1298.7593 620.75707 
L 1300.784963 626.478315 
L 1301.797794 626.478315 
L 1302.810625 629.345455 
L 1305.84912 629.345455 
L 1308.887614 612.16217 
L 1310.913277 589.251122 
L 1311.926108 574.934977 
L 1312.93894 557.758208 
L 1313.951771 549.163305 
L 1318.003097 491.892202 
L 1322.054423 457.532156 
L 1323.067254 451.797871 
L 1324.080085 448.937253 
L 1325.092917 443.209494 
L 1326.105748 434.621104 
L 1327.11858 431.760487 
L 1328.131411 423.165585 
L 1331.169905 423.165585 
L 1332.182737 426.026202 
L 1333.195568 423.165585 
L 1335.221231 423.165585 
L 1338.259725 431.760487 
L 1339.272557 437.481734 
L 1340.285388 446.076624 
L 1341.29822 451.804396 
L 1342.311051 454.665013 
L 1344.336714 471.848305 
L 1347.375208 489.031584 
L 1348.38804 491.892202 
L 1349.400871 497.619974 
L 1350.413703 500.480591 
L 1351.426534 506.214864 
L 1352.439366 506.214864 
L 1353.452197 509.075493 
L 1354.465028 509.075493 
L 1355.47786 514.803253 
L 1358.516354 514.803253 
L 1360.542017 520.531013 
L 1362.56768 520.531013 
L 1367.631837 534.847162 
L 1368.644668 534.847162 
L 1370.670331 540.568409 
L 1371.683163 546.302682 
L 1381.811477 574.934977 
L 1382.824309 574.934977 
L 1383.83714 580.662737 
L 1385.862803 580.662737 
L 1386.875634 586.3905 
L 1388.901297 586.3905 
L 1389.914129 592.111746 
L 1390.92696 592.111746 
L 1391.939791 597.846023 
L 1394.978286 597.846023 
L 1395.991117 603.567269 
L 1398.01678 603.567269 
L 1400.042443 609.301547 
L 1403.080937 609.301547 
L 1406.119431 592.111746 
L 1408.145094 574.934977 
L 1409.157926 560.618831 
L 1411.183589 543.435546 
L 1415.234914 497.619974 
L 1416.247746 483.303825 
L 1417.260577 474.708922 
L 1418.273409 463.259915 
L 1419.28624 454.665013 
L 1420.299072 448.937253 
L 1422.324734 443.209494 
L 1423.337566 437.481734 
L 1424.350397 426.032727 
L 1425.363229 417.437825 
L 1426.37606 411.710065 
L 1427.388892 403.121675 
L 1429.414554 403.121675 
L 1430.427386 405.982293 
L 1432.453049 405.982293 
L 1433.46588 411.710065 
L 1434.478712 414.577195 
L 1437.517206 431.753962 
L 1438.530037 440.348864 
L 1440.5557 451.804396 
L 1441.568532 454.671526 
L 1442.581363 460.392773 
L 1443.594194 468.981163 
L 1446.632689 486.164442 
L 1447.64552 489.031584 
L 1448.658352 494.752831 
L 1449.671183 497.619974 
L 1450.684014 503.347734 
L 1452.709677 509.075493 
L 1453.722509 514.803253 
L 1454.73534 514.803253 
L 1455.748172 520.531013 
L 1462.837992 540.568409 
L 1463.850823 540.568409 
L 1465.876486 546.302682 
L 1466.889317 546.302682 
L 1468.91498 552.023929 
L 1470.940643 552.023929 
L 1472.966306 557.758208 
L 1474.991969 557.758208 
L 1477.017632 563.479455 
L 1478.030463 563.479455 
L 1479.043295 569.21373 
L 1481.068957 569.21373 
L 1483.09462 574.934977 
L 1484.107452 574.934977 
L 1486.133115 580.662737 
L 1488.158777 580.662737 
L 1489.171609 586.3905 
L 1493.222935 586.3905 
L 1495.248597 592.111746 
L 1499.299923 592.111746 
L 1500.312755 589.251122 
L 1501.325586 580.662737 
L 1502.338418 577.795601 
L 1503.351249 569.21373 
L 1504.36408 563.479455 
L 1505.376912 552.023929 
L 1506.389743 543.435546 
L 1507.402575 531.98002 
L 1508.415406 526.25226 
L 1512.466732 491.892202 
L 1514.492395 468.987675 
L 1516.518058 451.804396 
L 1517.530889 446.070111 
L 1518.54372 446.070111 
L 1521.582215 428.893344 
L 1523.607878 411.710065 
L 1524.620709 405.982293 
L 1526.646372 400.254545 
L 1527.659203 403.121675 
L 1530.697698 403.121675 
L 1532.72336 414.577195 
L 1533.736192 417.437825 
L 1535.761855 434.621104 
L 1536.774686 440.348864 
L 1537.787518 448.937253 
L 1539.81318 460.392773 
L 1540.826012 468.981163 
L 1542.851675 480.436682 
L 1543.864506 489.031584 
L 1544.877338 491.892202 
L 1546.903001 503.347734 
L 1547.915832 506.208351 
L 1548.928663 511.94263 
L 1549.941495 514.803253 
L 1550.954326 520.531013 
L 1552.979989 526.258779 
L 1553.992821 526.258779 
L 1555.005652 531.98002 
L 1557.031315 531.98002 
L 1559.056978 537.707786 
L 1560.069809 537.707786 
L 1561.082641 540.568409 
L 1562.095472 540.568409 
L 1563.108303 543.435546 
L 1564.121135 543.435546 
L 1565.133966 546.302682 
L 1566.146798 546.302682 
L 1567.159629 549.163305 
L 1568.172461 549.163305 
L 1569.185292 552.023929 
L 1570.198123 552.023929 
L 1571.210955 554.891071 
L 1573.236618 554.891071 
L 1575.262281 560.618831 
L 1577.287943 560.618831 
L 1579.313606 566.346591 
L 1582.352101 566.346591 
L 1584.377764 572.074354 
L 1585.390595 572.074354 
L 1586.403426 574.934977 
L 1587.416258 574.934977 
L 1588.429089 577.802117 
L 1590.454752 577.802117 
L 1591.467584 580.662737 
L 1595.518909 580.662737 
L 1598.557404 572.074354 
L 1600.583066 560.618831 
L 1601.595898 557.751689 
L 1604.634392 540.574922 
L 1606.660055 523.398155 
L 1607.672886 517.663877 
L 1608.685718 506.208351 
L 1609.698549 497.619974 
L 1612.737044 463.253403 
L 1613.749875 454.665013 
L 1614.762706 448.943766 
L 1615.775538 446.076624 
L 1616.788369 440.348864 
L 1617.801201 440.348864 
L 1618.814032 434.621104 
L 1619.826864 426.026202 
L 1621.852526 414.570682 
L 1622.865358 414.570682 
L 1623.878189 411.710065 
L 1627.929515 411.710065 
L 1628.942347 414.570682 
L 1629.955178 414.570682 
L 1630.968009 420.304955 
L 1631.980841 423.165585 
L 1632.993672 428.893344 
L 1634.006504 428.893344 
L 1635.019335 434.621104 
L 1637.044998 440.348864 
L 1639.070661 451.804396 
L 1641.096324 457.532156 
L 1643.121987 468.981163 
L 1644.134818 468.981163 
L 1646.160481 480.436682 
L 1647.173312 480.436682 
L 1649.198975 491.892202 
L 1650.211807 491.892202 
L 1652.237469 503.347734 
L 1653.250301 503.347734 
L 1654.263132 509.075493 
L 1658.314458 520.531013 
L 1659.327289 520.531013 
L 1661.352952 526.258779 
L 1662.365784 526.258779 
L 1664.391447 531.98002 
L 1665.404278 531.98002 
L 1665.404278 531.98002 
" clip-path="url(#p1c64369d02)" style="fill: none; stroke: #000000; stroke-width: 1.5; stroke-linecap: square"/>
   </g>
   <g id="line2d_12">
    <path d="M 1471.953475 568.686337 
L 1472.966306 568.309822 
L 1473.979137 567.657535 
L 1474.991969 565.07616 
L 1476.0048 576.338716 
L 1477.017632 574.281183 
L 1478.030463 581.642806 
L 1480.056126 589.156326 
L 1481.068957 583.434912 
L 1482.081789 585.76301 
L 1483.09462 589.355795 
L 1484.107452 588.963374 
L 1485.120283 592.908764 
L 1486.133115 594.985709 
L 1487.145946 594.938384 
L 1488.158777 596.53389 
L 1489.171609 595.226837 
L 1490.18444 588.712541 
L 1491.197272 603.785665 
L 1492.210103 595.199383 
L 1493.222935 596.069099 
L 1494.235766 597.650046 
L 1495.248597 602.982546 
L 1496.261429 601.839078 
L 1497.27426 603.561329 
L 1498.287092 601.462739 
L 1499.299923 594.765517 
L 1500.312755 595.081211 
L 1501.325586 592.055768 
L 1502.338418 588.660008 
L 1503.351249 582.579968 
L 1504.36408 583.765661 
L 1505.376912 576.473467 
L 1506.389743 570.759457 
L 1507.402575 563.23609 
L 1508.415406 561.587201 
L 1509.428238 554.699259 
L 1510.441069 554.323027 
L 1511.4539 538.241611 
L 1512.466732 535.76376 
L 1513.479563 526.229619 
L 1514.492395 522.051551 
L 1515.505226 516.534619 
L 1516.518058 505.720487 
L 1517.530889 504.59296 
L 1518.54372 496.594618 
L 1519.556552 493.380404 
L 1520.569383 489.216895 
L 1521.582215 491.15847 
L 1522.595046 486.881181 
L 1523.607878 483.477805 
L 1524.620709 476.470805 
L 1525.63354 476.732691 
L 1526.646372 473.032502 
L 1527.659203 473.92062 
L 1528.672035 472.168472 
L 1529.684866 475.684777 
L 1530.697698 479.747684 
L 1531.710529 474.353282 
L 1532.72336 478.723788 
L 1533.736192 478.35627 
L 1534.749023 486.004416 
L 1535.761855 487.581555 
L 1536.774686 496.01541 
L 1537.787518 488.542202 
L 1538.800349 496.671398 
L 1539.81318 508.920444 
L 1540.826012 505.390093 
L 1541.838843 511.800084 
L 1542.851675 522.482919 
L 1543.864506 518.079222 
L 1544.877338 524.40402 
L 1545.890169 526.024428 
L 1546.903001 529.010959 
L 1547.915832 530.116701 
L 1548.928663 528.670487 
L 1549.941495 527.777551 
L 1550.954326 534.377075 
L 1551.967158 542.127701 
L 1552.979989 531.40521 
L 1553.992821 537.330379 
L 1555.005652 538.398643 
L 1556.018483 539.827871 
L 1557.031315 543.527493 
L 1558.044146 540.742327 
L 1559.056978 554.643432 
L 1560.069809 553.50418 
L 1561.082641 549.707037 
L 1562.095472 551.471407 
L 1563.108303 565.310769 
L 1564.121135 564.756924 
L 1565.133966 572.718231 
L 1566.146798 571.193748 
L 1567.159629 571.80374 
L 1568.172461 580.007945 
L 1569.185292 578.675351 
L 1570.198123 582.614223 
L 1571.210955 579.602488 
L 1572.223786 590.119311 
L 1573.236618 597.518448 
L 1574.249449 599.562238 
L 1575.262281 594.370971 
L 1576.275112 594.746778 
L 1577.287943 594.204906 
L 1578.300775 600.79685 
L 1579.313606 598.754584 
L 1580.326438 601.886049 
L 1581.339269 600.831848 
L 1582.352101 602.162281 
L 1583.364932 601.500111 
L 1584.377764 602.226468 
L 1585.390595 604.03827 
L 1586.403426 602.358562 
L 1587.416258 610.454407 
L 1588.429089 604.336854 
L 1589.441921 615.865511 
L 1590.454752 613.662352 
L 1591.467584 611.077151 
L 1592.480415 610.347818 
L 1593.493246 609.037222 
L 1594.506078 608.658227 
L 1595.518909 605.238096 
L 1596.531741 607.030557 
L 1597.544572 603.466678 
L 1598.557404 602.170854 
L 1599.570235 595.930487 
L 1600.583066 591.134511 
L 1601.595898 592.520735 
L 1602.608729 594.793821 
L 1604.634392 575.462731 
L 1605.647224 579.544394 
L 1606.660055 565.768014 
L 1607.672886 560.55684 
L 1609.698549 551.26 
L 1610.711381 545.300116 
L 1611.724212 530.963569 
L 1612.737044 525.879989 
L 1613.749875 526.631125 
L 1614.762706 517.704832 
L 1615.775538 515.672395 
L 1616.788369 516.829165 
L 1617.801201 505.198488 
L 1618.814032 497.682648 
L 1619.826864 498.9233 
L 1620.839695 489.584253 
L 1621.852526 493.312816 
L 1622.865358 485.027828 
L 1623.878189 488.466148 
L 1624.891021 489.441532 
L 1625.903852 495.395288 
L 1626.916684 485.216953 
L 1627.929515 495.68746 
L 1628.942347 485.001065 
L 1629.955178 485.488633 
L 1630.968009 490.270387 
L 1631.980841 493.766289 
L 1632.993672 496.560523 
L 1634.006504 506.276139 
L 1635.019335 507.966297 
L 1636.032167 504.980333 
L 1637.044998 505.50026 
L 1638.057829 512.638574 
L 1639.070661 514.896357 
L 1640.083492 518.499804 
L 1641.096324 526.489361 
L 1642.109155 521.61687 
L 1643.121987 535.549148 
L 1644.134818 533.051212 
L 1645.147649 529.874972 
L 1646.160481 535.842276 
L 1647.173312 537.728325 
L 1648.186144 536.473309 
L 1649.198975 530.491835 
L 1650.211807 542.320405 
L 1651.224638 536.778517 
L 1652.237469 539.276648 
L 1653.250301 550.856598 
L 1654.263132 552.937369 
L 1655.275964 542.786081 
L 1656.288795 547.473732 
L 1657.301627 557.07231 
L 1658.314458 551.928121 
L 1659.327289 558.943091 
L 1660.340121 559.213407 
L 1661.352952 559.106889 
L 1662.365784 565.810841 
L 1663.378615 576.150724 
L 1664.391447 570.734342 
L 1665.404278 575.238961 
L 1665.404278 575.238961 
" clip-path="url(#p1c64369d02)" style="fill: none; stroke: #3883d7; stroke-width: 1.5; stroke-linecap: square"/>
   </g>
   <g id="patch_28">
    <path d="M 1258.094118 640.8 
L 1258.094118 388.8 
" style="fill: none; stroke: #000000; stroke-width: 0.8; stroke-linejoin: miter; stroke-linecap: square"/>
   </g>
   <g id="patch_29">
    <path d="M 1684.8 640.8 
L 1684.8 388.8 
" style="fill: none; stroke: #000000; stroke-width: 0.8; stroke-linejoin: miter; stroke-linecap: square"/>
   </g>
   <g id="patch_30">
    <path d="M 1258.094118 640.8 
L 1684.8 640.8 
" style="fill: none; stroke: #000000; stroke-width: 0.8; stroke-linejoin: miter; stroke-linecap: square"/>
   </g>
   <g id="patch_31">
    <path d="M 1258.094118 388.8 
L 1684.8 388.8 
" style="fill: none; stroke: #000000; stroke-width: 0.8; stroke-linejoin: miter; stroke-linecap: square"/>
   </g>
   <g id="text_6">
    <!-- iTransformer -->
    <g transform="translate(1414.948153 382.8)scale(0.18 -0.18)">
     <defs>
      <path id="DejaVuSans-73" d="M 2834 3397 
L 2834 2853 
Q 2591 2978 2328 3040 
Q 2066 3103 1784 3103 
Q 1356 3103 1142 2972 
Q 928 2841 928 2578 
Q 928 2378 1081 2264 
Q 1234 2150 1697 2047 
L 1894 2003 
Q 2506 1872 2764 1633 
Q 3022 1394 3022 966 
Q 3022 478 2636 193 
Q 2250 -91 1575 -91 
Q 1294 -91 989 -36 
Q 684 19 347 128 
L 347 722 
Q 666 556 975 473 
Q 1284 391 1588 391 
Q 1994 391 2212 530 
Q 2431 669 2431 922 
Q 2431 1156 2273 1281 
Q 2116 1406 1581 1522 
L 1381 1569 
Q 847 1681 609 1914 
Q 372 2147 372 2553 
Q 372 3047 722 3315 
Q 1072 3584 1716 3584 
Q 2034 3584 2315 3537 
Q 2597 3491 2834 3397 
z
" transform="scale(0.015625)"/>
     </defs>
     <use xlink:href="#DejaVuSans-69"/>
     <use xlink:href="#DejaVuSans-54" x="27.783203"/>
     <use xlink:href="#DejaVuSans-72" x="74.117188"/>
     <use xlink:href="#DejaVuSans-61" x="115.230469"/>
     <use xlink:href="#DejaVuSans-6e" x="176.509766"/>
     <use xlink:href="#DejaVuSans-73" x="239.888672"/>
     <use xlink:href="#DejaVuSans-66" x="291.988281"/>
     <use xlink:href="#DejaVuSans-6f" x="327.193359"/>
     <use xlink:href="#DejaVuSans-72" x="388.375"/>
     <use xlink:href="#DejaVuSans-6d" x="427.738281"/>
     <use xlink:href="#DejaVuSans-65" x="525.150391"/>
     <use xlink:href="#DejaVuSans-72" x="586.673828"/>
    </g>
   </g>
  </g>
  <g id="legend_1">
   <g id="patch_32">
    <path d="M 763.389844 711 
L 1108.610156 711 
Q 1112.210156 711 1112.210156 707.4 
L 1112.210156 682.779375 
Q 1112.210156 679.179375 1108.610156 679.179375 
L 763.389844 679.179375 
Q 759.789844 679.179375 759.789844 682.779375 
L 759.789844 707.4 
Q 759.789844 711 763.389844 711 
z
" style="fill: #ffffff; opacity: 0.8; stroke: #cccccc; stroke-linejoin: miter"/>
   </g>
   <g id="line2d_13">
    <path d="M 766.989844 693.756563 
L 784.989844 693.756563 
L 802.989844 693.756563 
" style="fill: none; stroke: #000000; stroke-width: 1.5; stroke-linecap: square"/>
   </g>
   <g id="text_7">
    <!-- GroundTruth -->
    <g transform="translate(817.389844 700.056563)scale(0.18 -0.18)">
     <defs>
      <path id="DejaVuSans-47" d="M 3809 666 
L 3809 1919 
L 2778 1919 
L 2778 2438 
L 4434 2438 
L 4434 434 
Q 4069 175 3628 42 
Q 3188 -91 2688 -91 
Q 1594 -91 976 548 
Q 359 1188 359 2328 
Q 359 3472 976 4111 
Q 1594 4750 2688 4750 
Q 3144 4750 3555 4637 
Q 3966 4525 4313 4306 
L 4313 3634 
Q 3963 3931 3569 4081 
Q 3175 4231 2741 4231 
Q 1884 4231 1454 3753 
Q 1025 3275 1025 2328 
Q 1025 1384 1454 906 
Q 1884 428 2741 428 
Q 3075 428 3337 486 
Q 3600 544 3809 666 
z
" transform="scale(0.015625)"/>
      <path id="DejaVuSans-75" d="M 544 1381 
L 544 3500 
L 1119 3500 
L 1119 1403 
Q 1119 906 1312 657 
Q 1506 409 1894 409 
Q 2359 409 2629 706 
Q 2900 1003 2900 1516 
L 2900 3500 
L 3475 3500 
L 3475 0 
L 2900 0 
L 2900 538 
Q 2691 219 2414 64 
Q 2138 -91 1772 -91 
Q 1169 -91 856 284 
Q 544 659 544 1381 
z
M 1991 3584 
L 1991 3584 
z
" transform="scale(0.015625)"/>
      <path id="DejaVuSans-64" d="M 2906 2969 
L 2906 4863 
L 3481 4863 
L 3481 0 
L 2906 0 
L 2906 525 
Q 2725 213 2448 61 
Q 2172 -91 1784 -91 
Q 1150 -91 751 415 
Q 353 922 353 1747 
Q 353 2572 751 3078 
Q 1150 3584 1784 3584 
Q 2172 3584 2448 3432 
Q 2725 3281 2906 2969 
z
M 947 1747 
Q 947 1113 1208 752 
Q 1469 391 1925 391 
Q 2381 391 2643 752 
Q 2906 1113 2906 1747 
Q 2906 2381 2643 2742 
Q 2381 3103 1925 3103 
Q 1469 3103 1208 2742 
Q 947 2381 947 1747 
z
" transform="scale(0.015625)"/>
     </defs>
     <use xlink:href="#DejaVuSans-47"/>
     <use xlink:href="#DejaVuSans-72" x="77.490234"/>
     <use xlink:href="#DejaVuSans-6f" x="116.353516"/>
     <use xlink:href="#DejaVuSans-75" x="177.535156"/>
     <use xlink:href="#DejaVuSans-6e" x="240.914062"/>
     <use xlink:href="#DejaVuSans-64" x="304.292969"/>
     <use xlink:href="#DejaVuSans-54" x="367.769531"/>
     <use xlink:href="#DejaVuSans-72" x="414.103516"/>
     <use xlink:href="#DejaVuSans-75" x="455.216797"/>
     <use xlink:href="#DejaVuSans-74" x="518.595703"/>
     <use xlink:href="#DejaVuSans-68" x="557.804688"/>
    </g>
   </g>
   <g id="line2d_14">
    <path d="M 965.197969 693.756563 
L 983.197969 693.756563 
L 1001.197969 693.756563 
" style="fill: none; stroke: #3883d7; stroke-width: 1.5; stroke-linecap: square"/>
   </g>
   <g id="text_8">
    <!-- Prediction -->
    <g transform="translate(1015.597969 700.056563)scale(0.18 -0.18)">
     <use xlink:href="#DejaVuSans-50"/>
     <use xlink:href="#DejaVuSans-72" x="58.552734"/>
     <use xlink:href="#DejaVuSans-65" x="97.416016"/>
     <use xlink:href="#DejaVuSans-64" x="158.939453"/>
     <use xlink:href="#DejaVuSans-69" x="222.416016"/>
     <use xlink:href="#DejaVuSans-63" x="250.199219"/>
     <use xlink:href="#DejaVuSans-74" x="305.179688"/>
     <use xlink:href="#DejaVuSans-69" x="344.388672"/>
     <use xlink:href="#DejaVuSans-6f" x="372.171875"/>
     <use xlink:href="#DejaVuSans-6e" x="433.353516"/>
    </g>
   </g>
  </g>
 </g>
 <defs>
  <clipPath id="p221e8c5fca">
   <rect x="234" y="86.4" width="426.705882" height="252"/>
  </clipPath>
  <clipPath id="p0a111e2500">
   <rect x="746.047059" y="86.4" width="426.705882" height="252"/>
  </clipPath>
  <clipPath id="p1a53a23b5f">
   <rect x="1258.094118" y="86.4" width="426.705882" height="252"/>
  </clipPath>
  <clipPath id="p1f42595512">
   <rect x="234" y="388.8" width="426.705882" height="252"/>
  </clipPath>
  <clipPath id="p6d2f38391c">
   <rect x="746.047059" y="388.8" width="426.705882" height="252"/>
  </clipPath>
  <clipPath id="p1c64369d02">
   <rect x="1258.094118" y="388.8" width="426.705882" height="252"/>
  </clipPath>
 </defs>
</svg>
